<svg width="22" height="22" viewBox="0 0 22 22" fill="none" xmlns="http://www.w3.org/2000/svg">
<path d="M20.4651 11C20.4651 16.2245 16.2245 20.4651 11 20.4651V22C17.0722 22 22 17.0722 22 11H20.4651ZM11 20.4651C5.77547 20.4651 1.53488 16.2245 1.53488 11H0C0 17.0722 4.92778 22 11 22V20.4651ZM1.53488 11C1.53488 5.77547 5.77547 1.53488 11 1.53488V0C4.92778 0 0 4.92778 0 11H1.53488ZM11 1.53488C16.2245 1.53488 20.4651 5.77547 20.4651 11H22C22 4.92778 17.0722 0 11 0V1.53488Z" fill="#93989A"/>
<path d="M14.4031 14.913C14.767 15.1302 15.2381 15.0112 15.4553 14.6472C15.6726 14.2833 15.5536 13.8122 15.1896 13.595L14.4031 14.913ZM11.6242 12.3609L12.0175 11.7019L12.0155 11.7007L11.6242 12.3609ZM11.3889 6.4056C11.3889 5.98176 11.0453 5.63816 10.6215 5.63816C10.1976 5.63816 9.85402 5.98176 9.85402 6.4056H11.3889ZM15.1896 13.595L12.0175 11.7019L11.231 13.02L14.4031 14.913L15.1896 13.595ZM12.0155 11.7007C11.8811 11.6211 11.7157 11.4537 11.5823 11.2197C11.4489 10.9858 11.3889 10.7581 11.3889 10.6009H9.85402C9.85402 11.0885 10.0191 11.577 10.249 11.9801C10.4788 12.3831 10.8149 12.7734 11.233 13.0212L12.0155 11.7007ZM11.3889 10.6009V6.4056H9.85402V10.6009H11.3889Z" fill="#93989A"/>
</svg>
