<svg width="24" height="18" viewBox="0 0 24 18" fill="none" xmlns="http://www.w3.org/2000/svg">
<path d="M15.3376 15.4365C14.8753 15.4365 14.5004 15.9077 14.5004 16.489C14.5004 17.0703 14.8753 17.5415 15.3376 17.5415V15.4365ZM15.3376 0C14.8753 0 14.5004 0.471215 14.5004 1.05249C14.5004 1.63376 14.8753 2.10498 15.3376 2.10498V0ZM15.3376 17.5415H17.0232V15.4365H15.3376V17.5415ZM17.0232 17.5415C20.8558 17.5415 23.9999 13.6053 23.9999 8.77075H22.3255C22.3255 12.4403 19.933 15.4365 17.0232 15.4365V17.5415ZM23.9999 8.77075C23.9999 3.95269 20.8689 0 17.0232 0V2.10498C19.9422 2.10498 22.3255 5.11276 22.3255 8.77075H23.9999ZM17.0232 0H15.3376V2.10498H17.0232V0Z" fill="#93989A"/>
<path d="M8.65115 2.10498C9.11352 2.10498 9.48835 1.63376 9.48835 1.05249C9.48835 0.471215 9.11352 0 8.65115 0V2.10498ZM8.65115 17.5415C9.11352 17.5415 9.48835 17.0703 9.48835 16.489C9.48835 15.9077 9.11352 15.4365 8.65115 15.4365V17.5415ZM8.65115 0H6.97673V2.10498H8.65115V0ZM6.97673 0C3.13204 0 0 3.93742 0 8.77075H1.67442C1.67442 5.09996 4.05678 2.10498 6.97673 2.10498V0ZM0 8.77075C0 13.5888 3.13104 17.5415 6.97673 17.5415V15.4365C4.05778 15.4365 1.67442 12.4287 1.67442 8.77075H0ZM6.97673 17.5415H8.65115V15.4365H6.97673V17.5415Z" fill="#93989A"/>
<path d="M7.53482 7.71825C7.07245 7.71825 6.69762 8.18946 6.69762 8.77074C6.69762 9.35201 7.07245 9.82323 7.53482 9.82323V7.71825ZM16.465 9.82323C16.9274 9.82323 17.3022 9.35201 17.3022 8.77074C17.3022 8.18946 16.9274 7.71825 16.465 7.71825V9.82323ZM7.53482 9.82323H16.465V7.71825H7.53482V9.82323Z" fill="#93989A"/>
</svg>
