<svg width="22" height="22" viewBox="0 0 22 22" fill="none" xmlns="http://www.w3.org/2000/svg">
<path d="M13.7245 18.5204L13.1152 18.0573L13.1122 18.0612L13.7245 18.5204ZM12.1939 20.5612L12.8061 21.0204L12.1939 20.5612ZM9.7449 20.5612L9.13265 21.0204L9.7449 20.5612ZM8.21429 18.5204L7.59529 18.9706L7.60204 18.9796L8.21429 18.5204ZM7.39796 17.3469H6.88776V18.8776H7.39796V17.3469ZM6.88776 17.3469C4.86047 17.3469 3.59067 17.0803 2.79988 16.3884C2.03436 15.7185 1.53061 14.4748 1.53061 11.9898H0C0 14.6068 0.516666 16.4244 1.79196 17.5402C3.04198 18.634 4.83341 18.8776 6.88776 18.8776V17.3469ZM1.53061 11.9898V6.88776H0V11.9898H1.53061ZM1.53061 6.88776C1.53061 4.96491 2.01081 3.66334 2.83707 2.83707C3.66334 2.01081 4.96491 1.53061 6.88776 1.53061V0C4.72897 0 2.96932 0.540214 1.75477 1.75477C0.540214 2.96932 0 4.72897 0 6.88776H1.53061ZM6.88776 1.53061H15.051V0H6.88776V1.53061ZM15.051 1.53061C16.9739 1.53061 18.2754 2.01081 19.1017 2.83707C19.928 3.66334 20.4082 4.96491 20.4082 6.88776H21.9388C21.9388 4.72897 21.3986 2.96932 20.184 1.75477C18.9695 0.540214 17.2098 0 15.051 0V1.53061ZM20.4082 6.88776V11.9898H21.9388V6.88776H20.4082ZM20.4082 11.9898C20.4082 13.9127 19.928 15.2142 19.1017 16.0405C18.2754 16.8667 16.9739 17.3469 15.051 17.3469V18.8776C17.2098 18.8776 18.9695 18.3373 20.184 17.1228C21.3986 15.9083 21.9388 14.1486 21.9388 11.9898H20.4082ZM15.051 17.3469H14.5408V18.8776H15.051V17.3469ZM14.5408 17.3469C13.9817 17.3469 13.4515 17.6147 13.1152 18.0573L14.3338 18.9835C14.3852 18.9159 14.4672 18.8776 14.5408 18.8776V17.3469ZM13.1122 18.0612L11.5816 20.102L12.8061 21.0204L14.3367 18.9796L13.1122 18.0612ZM11.5816 20.102C11.3682 20.3866 11.1391 20.4694 10.9694 20.4694C10.7997 20.4694 10.5706 20.3866 10.3571 20.102L9.13265 21.0204C9.59269 21.6338 10.2513 22 10.9694 22C11.6875 22 12.3461 21.6338 12.8061 21.0204L11.5816 20.102ZM10.3571 20.102L8.82653 18.0612L7.60204 18.9796L9.13265 21.0204L10.3571 20.102ZM8.83322 18.0703C8.65648 17.8272 8.4078 17.6554 8.18812 17.5464C7.96731 17.437 7.68655 17.3469 7.39796 17.3469V18.8776C7.38529 18.8776 7.39231 18.876 7.4191 18.8833C7.4442 18.89 7.47549 18.9015 7.50831 18.9179C7.54119 18.9341 7.56798 18.9514 7.58643 18.9658C7.60631 18.9812 7.60584 18.985 7.59536 18.9705L8.83322 18.0703Z" fill="#93989A"/>
<path d="M14.7979 8.67347C14.2344 8.67347 13.7775 9.13032 13.7775 9.69388C13.7775 10.2574 14.2344 10.7143 14.7979 10.7143V8.67347ZM14.8071 10.7143C15.3706 10.7143 15.8275 10.2574 15.8275 9.69388C15.8275 9.13032 15.3706 8.67347 14.8071 8.67347V10.7143ZM14.7979 10.7143H14.8071V8.67347H14.7979V10.7143Z" fill="#93989A"/>
<path d="M10.7153 8.67347C10.1517 8.67347 9.69488 9.13032 9.69488 9.69388C9.69488 10.2574 10.1517 10.7143 10.7153 10.7143V8.67347ZM10.7244 10.7143C11.288 10.7143 11.7449 10.2574 11.7449 9.69388C11.7449 9.13032 11.288 8.67347 10.7244 8.67347V10.7143ZM10.7153 10.7143H10.7244V8.67347H10.7153V10.7143Z" fill="#93989A"/>
<path d="M6.63265 8.67347C6.0691 8.67347 5.61225 9.13032 5.61225 9.69388C5.61225 10.2574 6.0691 10.7143 6.63265 10.7143V8.67347ZM6.64182 10.7143C7.20537 10.7143 7.66223 10.2574 7.66223 9.69388C7.66223 9.13032 7.20537 8.67347 6.64182 8.67347V10.7143ZM6.63265 10.7143H6.64182V8.67347H6.63265V10.7143Z" fill="#93989A"/>
</svg>
