<svg width="22" height="22" viewBox="0 0 22 22" fill="none" xmlns="http://www.w3.org/2000/svg">
<path d="M2.27481 10.2018C2.27481 9.77798 1.92569 9.43438 1.49503 9.43438C1.06437 9.43438 0.71525 9.77798 0.71525 10.2018H2.27481ZM20.9583 10.2018C20.9583 9.77798 20.6092 9.43438 20.1785 9.43438C19.7479 9.43438 19.3987 9.77798 19.3987 10.2018H20.9583ZM0.71525 10.2018V14.7962H2.27481V10.2018H0.71525ZM0.71525 14.7962C0.71525 17.1696 1.1939 19.031 2.46291 20.2799C3.73192 21.5288 5.6233 22 8.03477 22V20.4651C5.77796 20.4651 4.39947 20.0152 3.56568 19.1946C2.73189 18.374 2.27481 17.0173 2.27481 14.7962H0.71525ZM8.03477 22H13.6388V20.4651H8.03477V22ZM13.6388 22C16.0503 22 17.9416 21.5288 19.2106 20.2799C20.4796 19.031 20.9583 17.1696 20.9583 14.7962H19.3987C19.3987 17.0173 18.9417 18.374 18.1078 19.1946C17.2741 20.0152 15.8956 20.4651 13.6388 20.4651V22ZM20.9583 14.7962V10.2018H19.3987V14.7962H20.9583Z" fill="#93989A"/>
<path d="M13.9613 7.60279L14.7373 7.52766L14.7373 7.52733L13.9613 7.60279ZM13.2751 0.767441L14.0511 0.691984C14.0116 0.299274 13.676 0 13.2751 0V0.767441ZM8.41966 0.767441V0C8.01913 0 7.68374 0.298633 7.64377 0.690852L8.41966 0.767441ZM7.72305 7.60279L6.94717 7.5262L6.94702 7.52766L7.72305 7.60279ZM10.8422 11.7674C13.2074 11.7674 14.9694 9.84983 14.7373 7.52766L13.1852 7.67791C13.3275 9.10085 12.2822 10.2326 10.8422 10.2326V11.7674ZM14.7373 7.52733L14.0511 0.691984L12.4991 0.842899L13.1853 7.67824L14.7373 7.52733ZM13.2751 0H8.41966V1.53488H13.2751V0ZM7.64377 0.690852L6.94717 7.5262L8.49894 7.67938L9.19554 0.844031L7.64377 0.690852ZM6.94702 7.52766C6.71494 9.84983 8.47689 11.7674 10.8422 11.7674V10.2326C9.40212 10.2326 8.35688 9.10085 8.49909 7.67791L6.94702 7.52766Z" fill="#93989A"/>
<path d="M20.8338 7.26511L21.6097 7.18913L21.6096 7.18738L20.8338 7.26511ZM20.5427 4.45116L21.3184 4.37342C21.3175 4.36424 21.3164 4.35506 21.3151 4.34591L20.5427 4.45116ZM13.2336 0.767441V0C13.0133 0 12.8032 0.0917031 12.6554 0.252444C12.5076 0.413184 12.4357 0.627965 12.4576 0.843697L13.2336 0.767441ZM13.9613 7.94046L13.1854 8.01671L13.1857 8.01912L13.9613 7.94046ZM17.4028 11.7674C19.9657 11.7674 21.8632 9.69599 21.6097 7.18913L20.0578 7.3411C20.2203 8.94773 19.0402 10.2326 17.4028 10.2326V11.7674ZM21.6096 7.18738L21.3184 4.37342L19.7669 4.5289L20.058 7.34285L21.6096 7.18738ZM21.3151 4.34591C21.12 2.95934 20.7321 1.81897 19.8839 1.04788C19.0254 0.267452 17.8465 0 16.4046 0V1.53488C17.6868 1.53488 18.3898 1.77906 18.8257 2.17537C19.2719 2.58103 19.591 3.28252 19.7703 4.55641L21.3151 4.34591ZM16.4046 0H13.2336V1.53488H16.4046V0ZM12.4576 0.843697L13.1854 8.01671L14.7373 7.86421L14.0095 0.691186L12.4576 0.843697ZM13.1857 8.01912C13.4034 10.0989 15.2877 11.7674 17.4028 11.7674V10.2326C16.0868 10.2326 14.8728 9.15872 14.737 7.8618L13.1857 8.01912Z" fill="#93989A"/>
<path d="M7.6607 7.94046L6.88476 7.86444L6.88457 7.86639L7.6607 7.94046ZM7.88944 5.67907L7.11353 5.6027L7.11349 5.60305L7.88944 5.67907ZM8.3885 0.767441L9.1644 0.843805C9.18633 0.628057 9.1145 0.413249 8.96667 0.252484C8.81884 0.0917195 8.60881 0 8.3885 0V0.767441ZM1.07938 4.45116L0.306969 4.34591C0.305553 4.35597 0.30434 4.36606 0.303331 4.37618L1.07938 4.45116ZM0.798658 7.26511L1.5746 7.3411L1.5747 7.3401L0.798658 7.26511ZM4.22969 11.7674C6.3438 11.7674 8.23146 10.099 8.43684 8.01453L6.88457 7.86639C6.75725 9.15862 5.54659 10.2326 4.22969 10.2326V11.7674ZM8.43665 8.01648L8.66539 5.75508L7.11349 5.60305L6.88476 7.86444L8.43665 8.01648ZM8.66534 5.75543L9.1644 0.843805L7.61259 0.691078L7.11353 5.6027L8.66534 5.75543ZM8.3885 0H5.21741V1.53488H8.3885V0ZM5.21741 0C3.77551 0 2.59662 0.267452 1.73814 1.04788C0.889932 1.81897 0.50204 2.95934 0.306969 4.34591L1.85179 4.55641C2.031 3.28252 2.35012 2.58103 2.79634 2.17537C3.23229 1.77906 3.93526 1.53488 5.21741 1.53488V0ZM0.303331 4.37618L0.0226111 7.19013L1.5747 7.3401L1.85543 4.52614L0.303331 4.37618ZM0.0227119 7.18913C-0.230737 9.69599 1.66673 11.7674 4.22969 11.7674V10.2326C2.59222 10.2326 1.41217 8.94773 1.5746 7.3411L0.0227119 7.18913Z" fill="#93989A"/>
<path d="M8.24343 21.2326H7.46365C7.46365 21.6564 7.81277 22 8.24343 22V21.2326ZM13.4419 21.2326V22C13.8726 22 14.2217 21.6564 14.2217 21.2326H13.4419ZM10.8427 15.3488C9.85552 15.3488 8.97174 15.5907 8.34056 16.2119C7.70938 16.8331 7.46365 17.7029 7.46365 18.6744H9.02321C9.02321 17.9371 9.20896 17.5279 9.44333 17.2972C9.6777 17.0665 10.0936 16.8837 10.8427 16.8837V15.3488ZM7.46365 18.6744V21.2326H9.02321V18.6744H7.46365ZM8.24343 22H13.4419V20.4651H8.24343V22ZM14.2217 21.2326V18.6744H12.6622V21.2326H14.2217ZM14.2217 18.6744C14.2217 17.7029 13.976 16.8331 13.3448 16.2119C12.7136 15.5907 11.8299 15.3488 10.8427 15.3488V16.8837C11.5918 16.8837 12.0077 17.0665 12.242 17.2972C12.4764 17.5279 12.6622 17.9371 12.6622 18.6744H14.2217Z" fill="#93989A"/>
</svg>
