<svg width="19" height="19" viewBox="0 0 19 19" fill="none" xmlns="http://www.w3.org/2000/svg">
<path d="M8.76821 13.4221C8.76821 13.8553 9.11939 14.2065 9.5526 14.2065C9.98581 14.2065 10.337 13.8553 10.337 13.4221H8.76821ZM10.337 9.0644C10.337 8.63119 9.98581 8.28001 9.5526 8.28001C9.11939 8.28001 8.76821 8.63119 8.76821 9.0644H10.337ZM10.337 13.4221V9.0644H8.76821V13.4221H10.337Z" fill="#93989A"/>
<path d="M11.6787 12.0273C12.1119 12.0273 12.4631 11.6761 12.4631 11.2429C12.4631 10.8097 12.1119 10.4585 11.6787 10.4585V12.0273ZM7.32097 10.4585C6.88776 10.4585 6.53658 10.8097 6.53658 11.2429C6.53658 11.6761 6.88776 12.0273 7.32097 12.0273V10.4585ZM11.6787 10.4585H7.32097V12.0273H11.6787V10.4585Z" fill="#93989A"/>
<path d="M8.54113 1.83024L7.91362 2.30088L8.54113 1.83024ZM9.84845 3.57333L9.22092 4.04398L9.22394 4.04795L9.84845 3.57333ZM17.4309 8.62829V13.8575H18.9997V8.62829H17.4309ZM17.4309 13.8575C17.4309 15.6062 17.1933 16.3849 16.7891 16.7891C16.3849 17.1933 15.6062 17.4309 13.8575 17.4309V18.9997C15.595 18.9997 16.9953 18.8015 17.8984 17.8984C18.8015 16.9953 18.9997 15.595 18.9997 13.8575H17.4309ZM13.8575 17.4309H5.14211V18.9997H13.8575V17.4309ZM5.14211 17.4309C3.39342 17.4309 2.6148 17.1933 2.21058 16.7891C1.80636 16.3849 1.56878 15.6062 1.56878 13.8575H0C0 15.595 0.198187 16.9953 1.10129 17.8984C2.00439 18.8015 3.40463 18.9997 5.14211 18.9997V17.4309ZM1.56878 13.8575V5.14211H0V13.8575H1.56878ZM1.56878 5.14211C1.56878 3.39342 1.80636 2.6148 2.21058 2.21058C2.6148 1.80636 3.39342 1.56878 5.14211 1.56878V0C3.40463 0 2.00439 0.198187 1.10129 1.10129C0.198187 2.00439 0 3.40463 0 5.14211H1.56878ZM5.14211 1.56878H6.44943V0H5.14211V1.56878ZM6.44943 1.56878C7.03518 1.56878 7.27088 1.65657 7.3953 1.73132C7.53829 1.81721 7.64651 1.94473 7.91362 2.30088L9.16865 1.35961C8.93898 1.05338 8.655 0.657972 8.20316 0.386535C7.73275 0.103947 7.17098 0 6.44943 0V1.56878ZM7.91362 2.30088L9.22094 4.04397L10.476 3.1027L9.16865 1.35961L7.91362 2.30088ZM9.22394 4.04795C9.36862 4.23832 9.58742 4.54519 9.93732 4.75666C10.3078 4.98057 10.7364 5.05495 11.2429 5.05495V3.48617C10.8779 3.48617 10.7749 3.42982 10.7488 3.41406C10.7021 3.38586 10.6595 3.34411 10.473 3.09871L9.22394 4.04795ZM11.2429 5.05495H13.8575V3.48617H11.2429V5.05495ZM13.8575 5.05495C15.6062 5.05495 16.3849 5.29254 16.7891 5.69676C17.1933 6.10097 17.4309 6.87959 17.4309 8.62829H18.9997C18.9997 6.8908 18.8015 5.49056 17.8984 4.58747C16.9953 3.68436 15.595 3.48617 13.8575 3.48617V5.05495Z" fill="#93989A"/>
</svg>
