<svg width="22" height="22" viewBox="0 0 22 22" fill="none" xmlns="http://www.w3.org/2000/svg">
<path d="M22.0002 14.0519V7.92017H20.4653V14.0519H22.0002ZM22.0002 7.92017C22.0002 5.28968 21.4781 3.24894 20.1126 1.88517C18.7471 0.521404 16.7038 0 14.0699 0V1.53294C16.5523 1.53294 18.0904 2.03349 19.0273 2.96912C19.9641 3.90475 20.4653 5.44087 20.4653 7.92017H22.0002ZM14.0699 0H7.9303V1.53294H14.0699V0ZM7.9303 0C5.29645 0 3.2531 0.521404 1.88759 1.88517C0.522071 3.24894 0 5.28968 0 7.92017H1.5349C1.5349 5.44087 2.03609 3.90475 2.97292 2.96912C3.90975 2.03349 5.44783 1.53294 7.9303 1.53294V0ZM0 7.92017V14.0519H1.5349V7.92017H0ZM0 14.0519C0 16.6824 0.522071 18.7232 1.88759 20.0869C3.2531 21.4507 5.29645 21.9721 7.9303 21.9721V20.4391C5.44783 20.4391 3.90975 19.9386 2.97292 19.003C2.03609 18.0673 1.5349 16.5312 1.5349 14.0519H0ZM7.9303 21.9721H14.0699V20.4391H7.9303V21.9721ZM14.0699 21.9721C16.7038 21.9721 18.7471 21.4507 20.1126 20.0869C21.4781 18.7232 22.0002 16.6824 22.0002 14.0519H20.4653C20.4653 16.5312 19.9641 18.0673 19.0273 19.003C18.0904 19.9386 16.5523 20.4391 14.0699 20.4391V21.9721Z" fill="#93989A"/>
<path d="M7.67473 0.766468C7.67473 0.343159 7.33113 0 6.90728 0C6.48343 0 6.13983 0.343159 6.13983 0.766468H7.67473ZM6.13983 21.2056C6.13983 21.6289 6.48343 21.9721 6.90728 21.9721C7.33113 21.9721 7.67473 21.6289 7.67473 21.2056H6.13983ZM6.13983 0.766468V21.2056H7.67473V0.766468H6.13983Z" fill="#93989A"/>
<path d="M14.6126 8.91174C14.9123 8.61242 14.9123 8.12712 14.6126 7.8278C14.3129 7.52847 13.8269 7.52847 13.5272 7.8278L14.6126 8.91174ZM11.4503 10.986L10.9077 10.444C10.608 10.7433 10.608 11.2286 10.9077 11.528L11.4503 10.986ZM13.5272 14.1442C13.8269 14.4435 14.3129 14.4435 14.6126 14.1442C14.9123 13.8448 14.9123 13.3595 14.6126 13.0602L13.5272 14.1442ZM13.5272 7.8278L10.9077 10.444L11.993 11.528L14.6126 8.91174L13.5272 7.8278ZM10.9077 11.528L13.5272 14.1442L14.6126 13.0602L11.993 10.444L10.9077 11.528Z" fill="#93989A"/>
</svg>
