<svg width="49" height="16" viewBox="0 0 49 16" fill="none" xmlns="http://www.w3.org/2000/svg">
<path fill-rule="evenodd" clip-rule="evenodd" d="M12.1758 15.8754H7.96097L4.80042 3.46312C4.65041 2.89216 4.33189 2.38739 3.86335 2.14948C2.69407 1.55163 1.40561 1.07582 0 0.835852V0.357978H6.78964C7.72671 0.357978 8.4295 1.07582 8.54664 1.90951L10.1865 10.863L14.3992 0.357978H18.4969L12.1758 15.8754ZM20.8395 15.8754H16.8591L20.1367 0.357978H24.1172L20.8395 15.8754ZM29.2669 4.65669C29.3841 3.82092 30.0869 3.34305 30.9068 3.34305C32.1953 3.22306 33.5989 3.46303 34.7702 4.05883L35.473 0.717846C34.3017 0.239972 33.0132 0 31.8439 0C27.9805 0 25.1693 2.1494 25.1693 5.13249C25.1693 7.40188 27.1606 8.59346 28.5662 9.31131C30.0869 10.0271 30.6725 10.505 30.5554 11.2208C30.5554 12.2944 29.3841 12.7723 28.2148 12.7723C26.8092 12.7723 25.4036 12.4144 24.1172 11.8166L23.4144 15.1596C24.82 15.7554 26.3407 15.9954 27.7463 15.9954C32.0781 16.1133 34.7702 13.966 34.7702 10.7429C34.7702 6.68404 29.2669 6.44613 29.2669 4.65669ZM48.7009 15.8754L45.5404 0.357978H42.1455C41.4427 0.357978 40.7399 0.835852 40.5057 1.55163L34.6531 15.8754H38.7507L39.5686 13.6082H44.6033L45.0718 15.8754H48.7009ZM42.7312 4.53687L43.9005 10.3851H40.6228L42.7312 4.53687Z" fill="#D9D9D9"/>
</svg>
