<svg width="7" height="21" viewBox="0 0 7 21" fill="none" xmlns="http://www.w3.org/2000/svg">
<path d="M7 2.33324C7 1.04996 5.42506 -6.88426e-08 3.50014 -1.52984e-07C1.57522 -2.37125e-07 0.000284704 1.04996 0.000284648 2.33324C0.000284592 3.61652 1.57522 4.66648 3.50014 4.66648C5.42506 4.66648 7 3.61652 7 2.33324Z" fill="#93989A"/>
<path d="M7 18.6659C7 17.3826 5.42506 16.3327 3.50014 16.3327C1.57522 16.3327 0.000284704 17.3826 0.000284648 18.6659C0.000284592 19.9492 1.57522 20.9991 3.50014 20.9991C5.42506 20.9991 7 19.9492 7 18.6659Z" fill="#93989A"/>
<path d="M7 10.4996C7 9.21629 5.42506 8.16633 3.50014 8.16633C1.57522 8.16633 0.000284704 9.21629 0.000284648 10.4996C0.000284592 11.7829 1.57522 12.8328 3.50014 12.8328C5.42506 12.8328 7 11.7829 7 10.4996Z" fill="#93989A"/>
</svg>
