<svg width="18" height="19" viewBox="0 0 18 19" fill="none" xmlns="http://www.w3.org/2000/svg">
<path d="M12.8781 6.25354C12.4072 6.21295 11.9925 6.5622 11.9519 7.03361C11.9114 7.50503 12.2603 7.92009 12.7313 7.96069L12.8781 6.25354ZM5.20645 7.96872C5.67713 7.9248 6.02312 7.50728 5.97924 7.03616C5.93537 6.56505 5.51823 6.21873 5.04757 6.26265L5.20645 7.96872ZM12.7313 7.96069C14.1441 8.08247 14.9666 8.49034 15.4654 9.10551C15.9831 9.74434 16.2883 10.771 16.2883 12.4274H18.0002C18.0002 10.6141 17.6762 9.11337 16.7946 8.02589C15.8939 6.91475 14.5465 6.39735 12.8781 6.25354L12.7313 7.96069ZM16.2883 12.4274V12.5388H18.0002V12.4274H16.2883ZM16.2883 12.5388C16.2883 14.3688 15.9171 15.4277 15.2947 16.0507C14.6724 16.6736 13.6145 17.0452 11.7861 17.0452V18.7587C13.7837 18.7587 15.4049 18.3635 16.5051 17.2623C17.6054 16.161 18.0002 14.5383 18.0002 12.5388H16.2883ZM11.7861 17.0452H6.21404V18.7587H11.7861V17.0452ZM6.21404 17.0452C4.38569 17.0452 3.32779 16.6736 2.70546 16.0507C2.08315 15.4277 1.71186 14.3688 1.71186 12.5388H0C0 14.5383 0.394769 16.161 1.495 17.2623C2.59523 18.3635 4.21638 18.7587 6.21404 18.7587V17.0452ZM1.71186 12.5388V12.4274H0V12.5388H1.71186ZM1.71186 12.4274C1.71186 10.7836 2.01277 9.76038 2.52359 9.12124C3.01462 8.50688 3.82208 8.09789 5.20645 7.96872L5.04757 6.26265C3.40195 6.4162 2.07387 6.94105 1.18686 8.05085C0.319639 9.13589 0 10.6272 0 12.4274H1.71186Z" fill="#010101"/>
<path d="M8.14857 12.3332C8.14857 12.8063 8.53178 13.1899 9.0045 13.1899C9.47721 13.1899 9.86042 12.8063 9.86042 12.3332H8.14857ZM9.86042 2.58358C9.86042 2.11042 9.47721 1.72685 9.0045 1.72685C8.53178 1.72685 8.14857 2.11042 8.14857 2.58358H9.86042ZM9.86042 12.3332V2.58358H8.14857V12.3332H9.86042Z" fill="#010101"/>
<path d="M11.0162 3.63754L8.14884 0.767488L5.28148 3.63754" fill="#010101"/>
<path d="M11.0162 3.63754L8.14884 0.767488L5.28148 3.63754" stroke="#010101" stroke-width="1.5" stroke-linecap="round" stroke-linejoin="round"/>
</svg>
