<svg width="22" height="22" viewBox="0 0 22 22" fill="none" xmlns="http://www.w3.org/2000/svg">
<path d="M20.5566 18.7739C20.8869 19.0897 21.4224 19.0897 21.7526 18.7739C22.0829 18.4582 22.0829 17.9463 21.7526 17.6305L20.5566 18.7739ZM16.1709 12.2944C15.8407 11.9786 15.3052 11.9786 14.9749 12.2944C14.6446 12.6101 14.6446 13.122 14.9749 13.4378L16.1709 12.2944ZM21.7526 17.6305L16.1709 12.2944L14.9749 13.4378L20.5566 18.7739L21.7526 17.6305Z" fill="#93989A"/>
<path d="M15.5726 12.866L14.9746 12.2943L15.5726 12.866ZM11.5808 16.6822L12.1788 17.2538L11.5808 16.6822ZM8.38967 16.6822L7.79165 17.2538H7.79166L8.38967 16.6822ZM3.60855 12.1114L4.20656 11.5397V11.5397L3.60855 12.1114ZM14.772 1.43914L15.37 0.86744V0.867437L14.772 1.43914ZM19.5531 6.00991L18.9551 6.58161L19.5531 6.00991ZM14.9746 12.2943L10.9828 16.1105L12.1788 17.2538L16.1706 13.4377L14.9746 12.2943ZM10.9828 16.1105C10.4336 16.6356 9.53695 16.6356 8.98768 16.1105L7.79166 17.2538C9.00147 18.4104 10.969 18.4104 12.1788 17.2538L10.9828 16.1105ZM8.98768 16.1105L4.20656 11.5397L3.01054 12.6831L7.79165 17.2538L8.98768 16.1105ZM4.20656 11.5397C3.65729 11.0146 3.65729 10.1575 4.20656 9.63236L3.01054 8.48896C1.80073 9.64554 1.80073 11.5265 3.01054 12.6831L4.20656 11.5397ZM4.20656 9.63236L12.1788 2.01084L10.9828 0.867437L3.01054 8.48896L4.20656 9.63236ZM12.1788 2.01084C12.7281 1.48573 13.6247 1.48573 14.174 2.01084L15.37 0.867437C14.1602 -0.289146 12.1926 -0.289146 10.9828 0.867437L12.1788 2.01084ZM14.174 2.01084L18.9551 6.58161L20.1511 5.43821L15.37 0.86744L14.174 2.01084ZM18.9551 6.58161C19.5044 7.10672 19.5044 7.96385 18.9551 8.48896L20.1511 9.63236C21.3609 8.47577 21.3609 6.59479 20.1511 5.43821L18.9551 6.58161ZM18.9551 8.48896L14.9746 12.2943L16.1706 13.4377L20.1511 9.63236L18.9551 8.48896Z" fill="#93989A"/>
<path d="M0.845715 20.0779C0.378639 20.0779 0 20.4399 0 20.8864C0 21.3329 0.378639 21.6949 0.845715 21.6949V20.0779ZM7.61144 21.6949C8.07851 21.6949 8.45715 21.3329 8.45715 20.8864C8.45715 20.4399 8.07851 20.0779 7.61144 20.0779V21.6949ZM0.845715 21.6949H7.61144V20.0779H0.845715V21.6949Z" fill="#93989A"/>
<path d="M6.58571 6.21442C6.25544 5.89868 5.71996 5.89869 5.38969 6.21443C5.05942 6.53017 5.05942 7.04209 5.38969 7.35783L6.58571 6.21442ZM13.362 14.9793C13.6922 15.2951 14.2277 15.2951 14.558 14.9793C14.8883 14.6636 14.8883 14.1517 14.558 13.8359L13.362 14.9793ZM5.38969 7.35783L13.362 14.9793L14.558 13.8359L6.58571 6.21442L5.38969 7.35783Z" fill="#93989A"/>
</svg>
