<svg width="36" height="36" viewBox="0 0 36 36" fill="none" xmlns="http://www.w3.org/2000/svg">
<rect width="36" height="36" rx="18" fill="white"/>
<path d="M21.1381 13.9328L20.5505 13.3909L20.55 13.3914L21.1381 13.9328ZM13.7569 21.5445L13.1688 21.0032L13.1672 21.0048L13.7569 21.5445ZM13.1546 22.7971L12.3524 22.6929L12.3506 22.7077L13.1546 22.7971ZM12.8219 25.6351L12.018 25.5457L12.0177 25.548L12.8219 25.6351ZM14.5031 27.1855L14.3669 26.4084L14.3657 26.4086L14.5031 27.1855ZM17.3981 26.7037L17.5343 27.4807L17.5397 27.4799L17.3981 26.7037ZM18.6478 26.0467L18.0595 25.5053L18.0498 25.5156L18.6478 26.0467ZM26.029 18.435L25.4414 17.8931L25.4409 17.8937L26.029 18.435ZM25.8941 13.7927L26.4501 13.2199L26.4486 13.2185L25.8941 13.7927ZM20.55 13.3914L13.1688 21.0032L14.3451 22.0859L21.7263 14.4742L20.55 13.3914ZM13.1672 21.0048C12.9491 21.231 12.7687 21.5255 12.6381 21.7982C12.5071 22.0721 12.3937 22.3921 12.3525 22.6929L13.9566 22.9013C13.9694 22.808 14.0179 22.6462 14.1048 22.4646C14.1923 22.2818 14.2861 22.1472 14.3467 22.0843L13.1672 21.0048ZM12.3506 22.7077L12.018 25.5457L13.6258 25.7246L13.9585 22.8866L12.3506 22.7077ZM12.0177 25.548C11.9354 26.2701 12.1573 26.9578 12.6708 27.4323C13.1852 27.9075 13.9028 28.0863 14.6406 27.9624L14.3657 26.4086C14.0606 26.4598 13.8792 26.3758 13.7844 26.2883C13.6888 26.2 13.5916 26.0249 13.6261 25.7221L12.0177 25.548ZM14.6394 27.9626L17.5343 27.4807L17.2619 25.9266L14.3669 26.4084L14.6394 27.9626ZM17.5397 27.4799C17.8497 27.4262 18.1744 27.3003 18.4516 27.1559C18.7271 27.0124 19.0234 26.8154 19.2457 26.578L18.0498 25.5156C17.9934 25.5759 17.8672 25.6724 17.6886 25.7655C17.5119 25.8575 17.3511 25.9111 17.2565 25.9275L17.5397 27.4799ZM19.2359 26.5882L26.6171 18.9764L25.4409 17.8937L18.0596 25.5054L19.2359 26.5882ZM26.6166 18.977C27.2995 18.2742 27.9178 17.4037 27.9926 16.3626C28.0703 15.2801 27.5497 14.2331 26.4501 13.2199L25.3382 14.3654C26.2254 15.1829 26.4107 15.8001 26.3782 16.2527C26.3428 16.7466 26.0351 17.282 25.4414 17.8931L26.6166 18.977ZM26.4486 13.2185C25.3524 12.2136 24.2528 11.7708 23.1505 11.9081C22.0906 12.0402 21.2337 12.6878 20.5505 13.3909L21.7258 14.4748C22.3193 13.8639 22.8514 13.5349 23.3558 13.4721C23.8178 13.4145 24.4579 13.5586 25.3397 14.3668L26.4486 13.2185Z" fill="#010101"/>
<path d="M20.7074 15.0829C20.6386 14.6527 20.2249 14.3583 19.7833 14.4253C19.3418 14.4923 19.0396 14.8954 19.1084 15.3256L20.7074 15.0829ZM24.7266 20.4996C25.1713 20.5432 25.568 20.2274 25.6128 19.7942C25.6576 19.361 25.3334 18.9745 24.8888 18.9309L24.7266 20.4996ZM19.1084 15.3256C19.552 18.0999 21.8631 20.2186 24.7266 20.4996L24.8888 18.9309C22.7536 18.7213 21.0369 17.1437 20.7074 15.0829L19.1084 15.3256Z" fill="#010101"/>
</svg>
