<svg width="17" height="17" viewBox="0 0 17 17" fill="none" xmlns="http://www.w3.org/2000/svg">
<path d="M11.9495 9.26499V12.835C11.9495 15.81 10.7546 17 7.76718 17H4.18233C1.19495 17 0 15.81 0 12.835V9.26499C0 6.28999 1.19495 5.09999 4.18233 5.09999H7.76718C10.7546 5.09999 11.9495 6.28999 11.9495 9.26499Z" fill="#B7BABC"/>
<path d="M12.8105 0H9.2257C6.70784 0 5.46924 0.85137 5.14172 2.89418C5.04179 3.51744 5.56971 4.0375 6.20349 4.0375H7.68933C11.2742 4.0375 12.9386 5.695 12.9386 9.26499V10.7447C12.9386 11.3758 13.4608 11.9016 14.0867 11.8021C16.138 11.4759 16.9929 10.2424 16.9929 7.73499V4.165C16.9929 1.19 15.7979 0 12.8105 0Z" fill="#B7BABC"/>
</svg>
