<svg width="20" height="19" viewBox="0 0 20 19" fill="none" xmlns="http://www.w3.org/2000/svg">
<path d="M11.1152 9.97597C11.4165 9.67468 11.4165 9.18618 11.1152 8.88489C10.8139 8.5836 10.3254 8.5836 10.0242 8.88489L11.1152 9.97597ZM8.02885 11.9713L8.57439 12.5168L8.02885 11.9713ZM13.1208 17.0632L12.5753 16.5177L13.1208 17.0632ZM17.1224 13.0617L17.6679 13.6072L17.1224 13.0617ZM6.93845 2.87773L7.48399 3.42327L6.93845 2.87773ZM2.57684 7.23934L2.0313 6.6938L2.57684 7.23934ZM2.03014 16.5172C2.33079 16.8191 2.81928 16.8202 3.12122 16.5196C3.42316 16.2189 3.4242 15.7304 3.12355 15.4285L2.03014 16.5172ZM10.0242 8.88489L7.48331 11.4258L8.57439 12.5168L11.1152 9.97597L10.0242 8.88489ZM7.48331 11.4258C5.77273 13.1364 5.77273 15.8982 7.48331 17.6087L8.57439 16.5177C7.46639 15.4097 7.46639 13.6248 8.57439 12.5168L7.48331 11.4258ZM7.48331 17.6087C9.19389 19.3193 11.9557 19.3193 13.6663 17.6087L12.5753 16.5177C11.4673 17.6257 9.68239 17.6257 8.57439 16.5177L7.48331 17.6087ZM13.6663 17.6087L17.6679 13.6072L16.5769 12.5162L12.5753 16.5177L13.6663 17.6087ZM17.6679 13.6072C20.7775 10.4976 20.7775 5.44178 17.6679 2.33219L16.5769 3.42327C19.0839 5.93028 19.0839 10.0091 16.5769 12.5162L17.6679 13.6072ZM17.6679 2.33219C14.5583 -0.777397 9.5025 -0.777397 6.39291 2.33219L7.48399 3.42327C9.991 0.916267 14.0699 0.916267 16.5769 3.42327L17.6679 2.33219ZM6.39291 2.33219L2.0313 6.6938L3.12238 7.78488L7.48399 3.42327L6.39291 2.33219ZM2.0313 6.6938C-0.677746 9.40285 -0.676069 13.7994 2.03014 16.5172L3.12355 15.4285C1.01554 13.3114 1.01721 9.89005 3.12238 7.78488L2.0313 6.6938Z" fill="#93989A"/>
</svg>
