<svg width="22" height="22" viewBox="0 0 22 22" fill="none" xmlns="http://www.w3.org/2000/svg">
<path d="M3.83721 9.72093H5.88372V8.18605H3.83721V9.72093ZM5.88372 9.72093C7.02528 9.72093 8.0224 9.43502 8.72871 8.72871C9.43502 8.0224 9.72093 7.02528 9.72093 5.88372H8.18605C8.18605 6.78868 7.96033 7.32644 7.64338 7.64338C7.32644 7.96033 6.78868 8.18605 5.88372 8.18605V9.72093ZM9.72093 5.88372V3.83721H8.18605V5.88372H9.72093ZM9.72093 3.83721C9.72093 2.69566 9.43502 1.69853 8.72871 0.992221C8.0224 0.285908 7.02528 0 5.88372 0V1.53488C6.78868 1.53488 7.32644 1.7606 7.64338 2.07755C7.96033 2.39449 8.18605 2.93225 8.18605 3.83721H9.72093ZM5.88372 0H3.83721V1.53488H5.88372V0ZM3.83721 0C2.69566 0 1.69853 0.285908 0.992221 0.992221C0.285908 1.69853 0 2.69566 0 3.83721H1.53488C1.53488 2.93225 1.7606 2.39449 2.07755 2.07755C2.39449 1.7606 2.93225 1.53488 3.83721 1.53488V0ZM0 3.83721V5.88372H1.53488V3.83721H0ZM0 5.88372C0 7.02528 0.285908 8.0224 0.992221 8.72871C1.69853 9.43502 2.69566 9.72093 3.83721 9.72093V8.18605C2.93225 8.18605 2.39449 7.96033 2.07755 7.64338C1.7606 7.32644 1.53488 6.78868 1.53488 5.88372H0Z" fill="#010101"/>
<path d="M16.1162 9.72093H18.1627V8.18605H16.1162V9.72093ZM18.1627 9.72093C19.3043 9.72093 20.3014 9.43502 21.0077 8.72871C21.714 8.0224 21.9999 7.02528 21.9999 5.88372H20.465C20.465 6.78868 20.2393 7.32644 19.9224 7.64338C19.6054 7.96033 19.0677 8.18605 18.1627 8.18605V9.72093ZM21.9999 5.88372V3.83721H20.465V5.88372H21.9999ZM21.9999 3.83721C21.9999 2.69566 21.714 1.69853 21.0077 0.992221C20.3014 0.285908 19.3043 0 18.1627 0V1.53488C19.0677 1.53488 19.6054 1.7606 19.9224 2.07755C20.2393 2.39449 20.465 2.93225 20.465 3.83721H21.9999ZM18.1627 0H16.1162V1.53488H18.1627V0ZM16.1162 0C14.9747 0 13.9775 0.285908 13.2712 0.992221C12.5649 1.69853 12.279 2.69566 12.279 3.83721H13.8139C13.8139 2.93225 14.0396 2.39449 14.3565 2.07755C14.6735 1.7606 15.2113 1.53488 16.1162 1.53488V0ZM12.279 3.83721V5.88372H13.8139V3.83721H12.279ZM12.279 5.88372C12.279 7.02528 12.5649 8.0224 13.2712 8.72871C13.9775 9.43502 14.9747 9.72093 16.1162 9.72093V8.18605C15.2113 8.18605 14.6735 7.96033 14.3565 7.64338C14.0396 7.32644 13.8139 6.78868 13.8139 5.88372H12.279Z" fill="#010101"/>
<path d="M16.1162 22H18.1627V20.4651H16.1162V22ZM18.1627 22C19.3043 22 20.3014 21.7141 21.0077 21.0078C21.714 20.3015 21.9999 19.3043 21.9999 18.1628H20.465C20.465 19.0677 20.2393 19.6055 19.9224 19.9224C19.6054 20.2394 19.0677 20.4651 18.1627 20.4651V22ZM21.9999 18.1628V16.1163H20.465V18.1628H21.9999ZM21.9999 16.1163C21.9999 14.9747 21.714 13.9776 21.0077 13.2713C20.3014 12.565 19.3043 12.2791 18.1627 12.2791V13.8139C19.0677 13.8139 19.6054 14.0397 19.9224 14.3566C20.2393 14.6736 20.465 15.2113 20.465 16.1163H21.9999ZM18.1627 12.2791H16.1162V13.8139H18.1627V12.2791ZM16.1162 12.2791C14.9747 12.2791 13.9775 12.565 13.2712 13.2713C12.5649 13.9776 12.279 14.9747 12.279 16.1163H13.8139C13.8139 15.2113 14.0396 14.6736 14.3565 14.3566C14.6735 14.0397 15.2113 13.8139 16.1162 13.8139V12.2791ZM12.279 16.1163V18.1628H13.8139V16.1163H12.279ZM12.279 18.1628C12.279 19.3043 12.5649 20.3015 13.2712 21.0078C13.9775 21.7141 14.9747 22 16.1162 22V20.4651C15.2113 20.4651 14.6735 20.2394 14.3565 19.9224C14.0396 19.6055 13.8139 19.0677 13.8139 18.1628H12.279Z" fill="#010101"/>
<path d="M3.83721 22H5.88372V20.4651H3.83721V22ZM5.88372 22C7.02528 22 8.0224 21.7141 8.72871 21.0078C9.43502 20.3015 9.72093 19.3043 9.72093 18.1628H8.18605C8.18605 19.0677 7.96033 19.6055 7.64338 19.9224C7.32644 20.2394 6.78868 20.4651 5.88372 20.4651V22ZM9.72093 18.1628V16.1163H8.18605V18.1628H9.72093ZM9.72093 16.1163C9.72093 14.9747 9.43502 13.9776 8.72871 13.2713C8.0224 12.565 7.02528 12.2791 5.88372 12.2791V13.8139C6.78868 13.8139 7.32644 14.0397 7.64338 14.3566C7.96033 14.6736 8.18605 15.2113 8.18605 16.1163H9.72093ZM5.88372 12.2791H3.83721V13.8139H5.88372V12.2791ZM3.83721 12.2791C2.69566 12.2791 1.69853 12.565 0.992221 13.2713C0.285908 13.9776 0 14.9747 0 16.1163H1.53488C1.53488 15.2113 1.7606 14.6736 2.07755 14.3566C2.39449 14.0397 2.93225 13.8139 3.83721 13.8139V12.2791ZM0 16.1163V18.1628H1.53488V16.1163H0ZM0 18.1628C0 19.3043 0.285908 20.3015 0.992221 21.0078C1.69853 21.7141 2.69566 22 3.83721 22V20.4651C2.93225 20.4651 2.39449 20.2394 2.07755 19.9224C1.7606 19.6055 1.53488 19.0677 1.53488 18.1628H0Z" fill="#010101"/>
</svg>
