<svg width="24" height="23" viewBox="0 0 24 23" fill="none" xmlns="http://www.w3.org/2000/svg">
<path d="M13.1161 11.3855C13.5785 11.3855 13.9533 10.9958 13.9533 10.515C13.9533 10.0343 13.5785 9.64454 13.1161 9.64454V11.3855ZM6.41827 9.64454C5.95588 9.64454 5.58105 10.0343 5.58105 10.515C5.58105 10.9958 5.95588 11.3855 6.41827 11.3855V9.64454ZM13.1161 9.64454H6.41827V11.3855H13.1161V9.64454Z" fill="#93989A"/>
<path d="M0 10.5152C0 10.996 0.374838 11.3857 0.837225 11.3857C1.29961 11.3857 1.67445 10.996 1.67445 10.5152H0ZM14.5119 4.71211C14.5119 5.19285 14.8868 5.58258 15.3491 5.58258C15.8115 5.58258 16.1864 5.19285 16.1864 4.71211H14.5119ZM1.67445 10.5152V5.15315H0V10.5152H1.67445ZM1.67445 5.15315C1.67445 3.26624 3.14151 1.74093 4.95637 1.74093V0C2.21674 0 0 2.30475 0 5.15315H1.67445ZM4.95637 1.74093H11.23V0H4.95637V1.74093ZM11.23 1.74093C12.1995 1.74093 13.027 2.05456 13.5984 2.56414C14.158 3.06312 14.5119 3.78212 14.5119 4.71211H16.1864C16.1864 3.27443 15.6193 2.07262 14.6886 1.24268C13.7698 0.423363 12.5376 0 11.23 0V1.74093Z" fill="#93989A"/>
<path d="M18.1176 11.7336L18.6974 12.3615C18.7042 12.3548 18.7108 12.3479 18.7173 12.3409L18.1176 11.7336ZM17.5147 14.0316L16.7051 14.2531L16.7062 14.2576L17.5147 14.0316ZM20.9306 15.7958H21.7679C21.7679 15.315 21.393 14.9253 20.9306 14.9253V15.7958ZM20.9306 11.0372V11.9077C21.393 11.9077 21.7679 11.5179 21.7679 11.0372H20.9306ZM19.725 11.0372V11.9077V11.0372ZM17.5377 11.1057C16.765 11.8769 16.4028 13.059 16.7051 14.2531L18.3244 13.8101C18.1802 13.2401 18.3536 12.7045 18.6974 12.3615L17.5377 11.1057ZM16.7062 14.2576C17.1009 15.784 18.5131 16.6662 19.8925 16.6662V14.9253C19.1286 14.9253 18.4868 14.438 18.3233 13.8056L16.7062 14.2576ZM19.8925 16.6662H20.9306V14.9253H19.8925V16.6662ZM20.0934 15.7958V17.4787H21.7679V15.7958H20.0934ZM20.0934 17.4787C20.0934 19.5629 18.4701 21.2507 16.4654 21.2507V22.9916C19.3948 22.9916 21.7679 20.5244 21.7679 17.4787H20.0934ZM16.4654 21.2507H5.30243V22.9916H16.4654V21.2507ZM5.30243 21.2507C3.29779 21.2507 1.67445 19.5629 1.67445 17.4787H0C0 20.5244 2.37302 22.9916 5.30243 22.9916V21.2507ZM1.67445 17.4787V9.35435H0V17.4787H1.67445ZM1.67445 9.35435C1.67445 7.27012 3.29779 5.58233 5.30243 5.58233V3.8414C2.37302 3.8414 0 6.30864 0 9.35435H1.67445ZM5.30243 5.58233H16.4654V3.8414H5.30243V5.58233ZM16.4654 5.58233C18.4589 5.58233 20.0934 7.28172 20.0934 9.35435H21.7679C21.7679 6.32024 19.3837 3.8414 16.4654 3.8414V5.58233ZM20.0934 9.35435V11.0372H21.7679V9.35435H20.0934ZM20.9306 10.1667H19.725V11.9077H20.9306V10.1667ZM19.725 10.1667C18.8755 10.1667 18.0894 10.5159 17.5177 11.1264L18.7173 12.3409C18.9717 12.0693 19.3243 11.9077 19.725 11.9077V10.1667Z" fill="#93989A"/>
<path d="M17.4477 13.6257L18.2821 13.5534L18.2811 13.5432L17.4477 13.6257ZM18.1174 11.7339L18.7023 12.3568C18.7073 12.3517 18.7124 12.3465 18.7173 12.3412L18.1174 11.7339ZM22.0133 11.0375V10.167V11.0375ZM22.3259 12.2214V14.6122H24.0004V12.2214H22.3259ZM22.3259 14.6122C22.3259 14.7759 22.1926 14.9256 22.0133 14.9256V16.6666C23.1067 16.6666 24.0004 15.7485 24.0004 14.6122H22.3259ZM22.0133 14.9256H19.8589V16.6666H22.0133V14.9256ZM19.8589 14.9256C19.0227 14.9256 18.3411 14.2904 18.282 13.5535L16.6134 13.698C16.7552 15.468 18.2839 16.6666 19.8589 16.6666V14.9256ZM18.2811 13.5432C18.2394 13.0874 18.4053 12.6582 18.7023 12.3568L17.5326 11.111C16.8919 11.7613 16.522 12.7017 16.6142 13.7083L18.2811 13.5432ZM18.7173 12.3412C18.9716 12.0696 19.3242 11.908 19.7249 11.908V10.167C18.8754 10.167 18.0893 10.5162 17.5176 11.1267L18.7173 12.3412ZM19.7249 11.908H22.0133V10.167H19.7249V11.908ZM22.0133 11.908C22.1926 11.908 22.3259 12.0577 22.3259 12.2214H24.0004C24.0004 11.0851 23.1067 10.167 22.0133 10.167V11.908Z" fill="#93989A"/>
</svg>
