<svg width="24" height="24" viewBox="0 0 24 24" fill="none" xmlns="http://www.w3.org/2000/svg">
<path d="M12.1341 12.8706L12.0157 13.6994C12.0643 13.7064 12.1135 13.709 12.1626 13.7074L12.1341 12.8706ZM11.8662 12.8706L11.8376 13.7074C11.8818 13.7089 11.9261 13.7069 11.97 13.7014L11.8662 12.8706ZM15.6615 9.22042L16.4987 9.22516V9.22042H15.6615ZM12.2525 12.0419C12.0912 12.0188 11.9153 12.0208 11.7623 12.0399L11.97 13.7014C11.9779 13.7004 11.9906 13.6995 12.0043 13.6995C12.0106 13.6995 12.0154 13.6997 12.0183 13.6999C12.0214 13.7001 12.0205 13.7001 12.0157 13.6994L12.2525 12.0419ZM11.8947 12.0339C10.3797 11.9823 9.17593 10.7436 9.17593 9.22042H7.50152C7.50152 11.6488 9.42331 13.6251 11.8376 13.7074L11.8947 12.0339ZM9.17593 9.22042C9.17593 7.66067 10.4325 6.39625 12.0001 6.39625V4.72183C9.50445 4.72183 7.50152 6.73925 7.50152 9.22042H9.17593ZM12.0001 6.39625C13.5582 6.39625 14.8243 7.66234 14.8243 9.22042H16.4987C16.4987 6.73759 14.4829 4.72183 12.0001 4.72183V6.39625ZM14.8243 9.21569C14.8156 10.7468 13.6163 11.9824 12.1055 12.0339L12.1626 13.7074C14.5811 13.6249 16.485 11.6456 16.4987 9.22516L14.8243 9.21569Z" fill="#93989A"/>
<path d="M19.5234 20.2381L20.0888 20.8556C20.285 20.676 20.3841 20.414 20.356 20.1496L19.5234 20.2381ZM4.47606 20.2381L3.64355 20.1496C3.61542 20.414 3.71456 20.676 3.91065 20.8556L4.47606 20.2381ZM6.45186 17.3582L5.98863 16.6608L5.98447 16.6636L6.45186 17.3582ZM17.5476 17.3582L18.015 16.6636L18.0132 16.6623L17.5476 17.3582ZM18.9581 19.6207C17.1192 21.3045 14.6845 22.3256 11.9998 22.3256V24C15.1196 24 17.9537 22.8108 20.0888 20.8556L18.9581 19.6207ZM11.9998 22.3256C9.31499 22.3256 6.88024 21.3045 5.04146 19.6207L3.91065 20.8556C6.04581 22.8108 8.87988 24 11.9998 24V22.3256ZM5.30856 20.3267C5.38751 19.5846 5.87293 18.7568 6.91926 18.0527L5.98447 16.6636C4.64197 17.5669 3.78786 18.7931 3.64355 20.1496L5.30856 20.3267ZM6.91508 18.0555C8.27855 17.1499 10.1228 16.6716 12.0081 16.6716C13.8937 16.6716 15.731 17.15 17.082 18.054L18.0132 16.6623C16.328 15.5347 14.1468 14.9972 12.0081 14.9972C9.86923 14.9972 7.68377 15.5348 5.98864 16.6608L6.91508 18.0555ZM17.0803 18.0527C18.1265 18.7568 18.612 19.5846 18.6909 20.3267L20.356 20.1496C20.2116 18.7931 19.3576 17.5669 18.015 16.6636L17.0803 18.0527Z" fill="#93989A"/>
<path d="M22.3255 12C22.3255 17.7026 17.7026 22.3255 12 22.3255V23.9999C18.6274 23.9999 23.9999 18.6274 23.9999 12H22.3255ZM12 22.3255C6.29732 22.3255 1.67441 17.7026 1.67441 12H0C0 18.6274 5.37257 23.9999 12 23.9999V22.3255ZM1.67441 12C1.67441 6.29732 6.29732 1.67441 12 1.67441V0C5.37257 0 0 5.37257 0 12H1.67441ZM12 1.67441C17.7026 1.67441 22.3255 6.29732 22.3255 12H23.9999C23.9999 5.37257 18.6274 0 12 0V1.67441Z" fill="#93989A"/>
</svg>
