<svg width="18" height="18" viewBox="0 0 18 18" fill="none" xmlns="http://www.w3.org/2000/svg">
<path d="M16.3636 9C16.3636 13.0668 13.0668 16.3636 9 16.3636V18C13.9705 18 18 13.9705 18 9H16.3636ZM9 16.3636C4.93318 16.3636 1.63636 13.0668 1.63636 9H0C0 13.9705 4.02944 18 9 18V16.3636ZM1.63636 9C1.63636 4.93318 4.93318 1.63636 9 1.63636V0C4.02944 0 0 4.02944 0 9H1.63636ZM9 1.63636C13.0668 1.63636 16.3636 4.93318 16.3636 9H18C18 4.02944 13.9705 0 9 0V1.63636Z" fill="#010101"/>
<path d="M5.72784 0.818176C5.27597 0.818176 4.90966 1.18449 4.90966 1.63636C4.90966 2.08823 5.27597 2.45454 5.72784 2.45454V0.818176ZM6.54602 1.63636L7.32209 1.89549C7.4054 1.64596 7.36365 1.37158 7.20989 1.15813C7.05612 0.944674 6.8091 0.818176 6.54602 0.818176V1.63636ZM6.54602 16.3636V17.1818C6.8091 17.1818 7.05612 17.0553 7.20989 16.8419C7.36365 16.6284 7.4054 16.354 7.32209 16.1045L6.54602 16.3636ZM5.72784 15.5454C5.27597 15.5454 4.90966 15.9118 4.90966 16.3636C4.90966 16.8155 5.27597 17.1818 5.72784 17.1818V15.5454ZM5.72784 2.45454H6.54602V0.818176H5.72784V2.45454ZM5.76996 1.37723C4.11835 6.3236 4.11835 11.6764 5.76996 16.6227L7.32209 16.1045C5.78279 11.4945 5.78279 6.50548 7.32209 1.89549L5.76996 1.37723ZM6.54602 15.5454H5.72784V17.1818H6.54602V15.5454Z" fill="#010101"/>
<path d="M12.2312 1.37745C12.0881 0.948843 11.6246 0.717404 11.196 0.860517C10.7674 1.00363 10.5359 1.4671 10.6791 1.89571L12.2312 1.37745ZM10.6791 16.1048C10.5359 16.5334 10.7674 16.9968 11.196 17.1399C11.6246 17.2831 12.0881 17.0516 12.2312 16.6229L10.6791 16.1048ZM10.6791 1.89571C12.2184 6.5057 12.2184 11.4947 10.6791 16.1048L12.2312 16.6229C13.8828 11.6766 13.8828 6.32382 12.2312 1.37745L10.6791 1.89571Z" fill="#010101"/>
<path d="M0.818359 12.2727C0.818359 12.7246 1.18467 13.0909 1.63654 13.0909C2.08841 13.0909 2.45472 12.7246 2.45472 12.2727H0.818359ZM1.63654 11.4545L1.89567 10.6785C1.64614 10.5952 1.37177 10.6369 1.15831 10.7907C0.944857 10.9444 0.818359 11.1915 0.818359 11.4545H1.63654ZM16.3638 11.4545H17.182C17.182 11.1915 17.0555 10.9444 16.8421 10.7907C16.6286 10.6369 16.3542 10.5952 16.1047 10.6785L16.3638 11.4545ZM15.5456 12.2727C15.5456 12.7246 15.912 13.0909 16.3638 13.0909C16.8157 13.0909 17.182 12.7246 17.182 12.2727H15.5456ZM2.45472 12.2727V11.4545H0.818359V12.2727H2.45472ZM1.37741 12.2306C6.32378 13.8822 11.6766 13.8822 16.6229 12.2306L16.1047 10.6785C11.4947 12.2178 6.50566 12.2178 1.89567 10.6785L1.37741 12.2306ZM15.5456 11.4545V12.2727H17.182V11.4545H15.5456Z" fill="#010101"/>
<path d="M1.37763 5.76959C0.949026 5.9127 0.717587 6.37618 0.8607 6.80478C1.00381 7.23339 1.46729 7.46483 1.89589 7.32172L1.37763 5.76959ZM16.1049 7.32172C16.5336 7.46483 16.997 7.23339 17.1401 6.80478C17.2832 6.37618 17.0517 5.9127 16.6231 5.76959L16.1049 7.32172ZM1.89589 7.32172C6.50588 5.78242 11.4949 5.78242 16.1049 7.32172L16.6231 5.76959C11.6768 4.11798 6.32401 4.11798 1.37763 5.76959L1.89589 7.32172Z" fill="#010101"/>
</svg>
