<svg width="22" height="22" viewBox="0 0 22 22" fill="none" xmlns="http://www.w3.org/2000/svg">
<path d="M5.76395 0H3.67397C1.26499 0 0 1.26499 0 3.66297V5.75295C0 8.15093 1.26499 9.41592 3.66297 9.41592H5.75295C8.15093 9.41592 9.41592 8.15093 9.41592 5.75295V3.66297C9.42692 1.26499 8.16193 0 5.76395 0Z" fill="#15161E"/>
<path d="M18.3368 0H16.2468C13.8489 0 12.5839 1.26499 12.5839 3.66297V5.75295C12.5839 8.15093 13.8489 9.41592 16.2468 9.41592H18.3368C20.7348 9.41592 21.9998 8.15093 21.9998 5.75295V3.66297C21.9998 1.26499 20.7348 0 18.3368 0Z" fill="#15161E"/>
<path d="M18.3368 12.5726H16.2468C13.8489 12.5726 12.5839 13.8375 12.5839 16.2355V18.3255C12.5839 20.7235 13.8489 21.9885 16.2468 21.9885H18.3368C20.7348 21.9885 21.9998 20.7235 21.9998 18.3255V16.2355C21.9998 13.8375 20.7348 12.5726 18.3368 12.5726Z" fill="#15161E"/>
<path d="M5.76395 12.5726H3.67397C1.26499 12.5726 0 13.8375 0 16.2355V18.3255C0 20.7345 1.26499 21.9995 3.66297 21.9995H5.75295C8.15093 21.9995 9.41592 20.7345 9.41592 18.3365V16.2465C9.42692 13.8375 8.16193 12.5726 5.76395 12.5726Z" fill="#15161E"/>
</svg>
