<svg width="17" height="16" viewBox="0 0 17 16" fill="none" xmlns="http://www.w3.org/2000/svg">
<path d="M8.95963 15.1192L8.71051 14.3544L8.703 14.3572L8.95963 15.1192ZM8.00353 15.1192L8.26016 14.3571L8.25263 14.3544L8.00353 15.1192ZM8.48158 2.61818L7.86256 3.09997C8.00802 3.30524 8.23761 3.42626 8.48158 3.42626C8.72555 3.42626 8.95514 3.30524 9.1006 3.09997L8.48158 2.61818ZM8.703 14.3572C8.68012 14.3656 8.59994 14.3838 8.48158 14.3838C8.36322 14.3838 8.28304 14.3656 8.26015 14.3572L7.74691 15.8812C7.98617 15.9697 8.25297 16 8.48158 16C8.71019 16 8.97699 15.9697 9.21625 15.8812L8.703 14.3572ZM8.25263 14.3544C7.24527 13.994 5.54189 13.0267 4.10057 11.479C2.66854 9.94131 1.54211 7.88474 1.54211 5.32525H0C0 8.42234 1.37177 10.8627 2.99697 12.6079C4.61287 14.343 6.52573 15.4444 7.75442 15.884L8.25263 14.3544ZM1.54211 5.32525C1.54211 3.27079 3.12041 1.61616 5.05811 1.61616V0C2.26154 0 0 2.38578 0 5.32525H1.54211ZM5.05811 1.61616C6.20591 1.61616 7.22224 2.19636 7.86256 3.09997L9.1006 2.13639C8.18339 0.842024 6.71693 0 5.05811 0V1.61616ZM9.1006 3.09997C9.74044 2.19702 10.7642 1.61616 11.9051 1.61616V0C10.2547 0 8.78024 0.84136 7.86256 2.13639L9.1006 3.09997ZM11.9051 1.61616C13.8428 1.61616 15.4211 3.27079 15.4211 5.32525H16.9632C16.9632 2.38578 14.7016 0 11.9051 0V1.61616ZM15.4211 5.32525C15.4211 7.88474 14.2946 9.94131 12.8626 11.479C11.4212 13.0267 9.71788 13.994 8.71053 14.3544L9.20873 15.884C10.4374 15.4444 12.3503 14.343 13.9662 12.6079C15.5914 10.8627 16.9632 8.42234 16.9632 5.32525H15.4211Z" fill="white"/>
</svg>
