<svg width="24" height="23" viewBox="0 0 24 23" fill="none" xmlns="http://www.w3.org/2000/svg">
<path d="M22.377 9.74765L21.577 9.55559L22.377 9.74765ZM21.3033 14.4371L20.5033 14.2451L20.5029 14.2465L21.3033 14.4371ZM15.1459 19.7886L15.2246 18.951L15.2114 18.9499L15.1459 19.7886ZM13.371 19.4857L13.5638 18.6678L13.5613 18.6671L13.371 19.4857ZM11.5303 19.0369L11.7207 18.2184L11.7201 18.2183L11.5303 19.0369ZM6.62193 10.9256L7.42195 11.1177L7.42205 11.1173L6.62193 10.9256ZM7.69564 6.22489L6.89576 6.03217L6.89552 6.03327L7.69564 6.22489ZM8.5064 3.75672L9.24379 4.12807L9.24619 4.12296L8.5064 3.75672ZM15.628 1.1988L15.4388 2.01763L15.4411 2.01817L15.628 1.1988ZM17.4576 1.63634L17.6448 0.817025L17.6445 0.81696L17.4576 1.63634ZM21.577 9.55559L20.5033 14.2451L22.1033 14.6292L23.177 9.93972L21.577 9.55559ZM20.5029 14.2465C20.0594 16.1983 19.4302 17.4149 18.6271 18.1186C17.8517 18.7981 16.7907 19.1052 15.2245 18.9511L15.0673 20.6262C16.9195 20.8086 18.477 20.4651 19.6957 19.3972C20.8865 18.3536 21.6268 16.726 22.1036 14.6279L20.5029 14.2465ZM15.2114 18.9499C14.7136 18.9091 14.165 18.8163 13.5638 18.6678L13.1782 20.3036C13.8479 20.4691 14.4825 20.5784 15.0804 20.6274L15.2114 18.9499ZM13.5613 18.6671L11.7207 18.2184L11.34 19.8554L13.1807 20.3042L13.5613 18.6671ZM11.7201 18.2183C9.51417 17.682 8.27799 16.9012 7.65824 15.8794C7.03908 14.8586 6.90386 13.3805 7.42195 11.1177L5.8219 10.7336C5.26628 13.1603 5.30089 15.1825 6.26216 16.7673C7.22286 18.3512 8.97773 19.2813 11.3405 19.8557L11.7201 18.2183ZM7.42205 11.1173L8.49577 6.41652L6.89552 6.03327L5.8218 10.734L7.42205 11.1173ZM8.49551 6.41761C8.70664 5.49881 8.95223 4.73508 9.24377 4.12805L7.76904 3.38538C7.40321 4.14707 7.12289 5.04376 6.89577 6.03217L8.49551 6.41761ZM9.24619 4.12296C9.81408 2.92021 10.5313 2.2451 11.4437 1.92266C12.3943 1.58672 13.6759 1.59065 15.4388 2.01763L15.8171 0.379966C13.9206 -0.0793552 12.2824 -0.153964 10.9076 0.331886C9.49449 0.831242 8.48061 1.87824 7.76661 3.39047L9.24619 4.12296ZM15.4411 2.01817L17.2708 2.45571L17.6445 0.81696L15.8148 0.37942L15.4411 2.01817ZM17.2705 2.45564C19.4867 2.98642 20.7241 3.76753 21.3433 4.78932C21.9623 5.8111 22.0953 7.29176 21.577 9.55559L23.177 9.93972C23.7324 7.51402 23.7011 5.48874 22.7398 3.90212C21.7783 2.31548 20.0193 1.38571 17.6448 0.817025L17.2705 2.45564Z" fill="#010101"/>
<path d="M15.146 19.7888L15.6068 20.4853C15.8957 20.285 16.0295 19.9197 15.9405 19.5743C15.8516 19.2288 15.5594 18.9785 15.2115 18.95L15.146 19.7888ZM12.5713 21.0004L12.3163 20.2005L12.3143 20.2012L12.5713 21.0004ZM10.8402 21.5838L11.0923 22.3846L11.0971 22.383L10.8402 21.5838ZM2.78733 17.3655L2.00563 17.6248L2.00583 17.6255L2.78733 17.3655ZM1.38493 12.934L0.602856 13.1922L0.603231 13.1934L1.38493 12.934ZM5.49352 4.68803L5.74568 5.48887L5.75042 5.48728L5.49352 4.68803ZM7.22461 4.10464L6.97625 3.30252L6.96773 3.30539L7.22461 4.10464ZM8.50649 3.75685L9.24387 4.12819C9.38126 3.84212 9.34898 3.50111 9.16048 3.2474C8.97198 2.99368 8.65964 2.87083 8.35374 2.93009L8.50649 3.75685ZM7.69573 6.22503L6.89586 6.03231L6.89561 6.03339L7.69573 6.22503ZM6.62202 10.9258L7.42204 11.1178L7.42214 11.1174L6.62202 10.9258ZM11.5304 19.0371L11.7208 18.2186L11.7202 18.2184L11.5304 19.0371ZM13.3711 19.4859L13.5639 18.6679L13.5614 18.6673L13.3711 19.4859ZM14.6852 19.0922C14.0917 19.5038 13.3151 19.8667 12.3164 20.2005L12.8262 21.8003C13.9091 21.4385 14.8417 21.0161 15.6068 20.4853L14.6852 19.0922ZM12.3143 20.2012L10.5833 20.7846L11.0971 22.383L12.8282 21.7997L12.3143 20.2012ZM10.588 20.783C8.48955 21.4758 7.09065 21.4602 6.08694 20.9343C5.08295 20.4083 4.25084 19.2546 3.56883 17.1054L2.00583 17.6255C2.73717 19.9301 3.75668 21.6038 5.33836 22.4324C6.92034 23.2613 8.84119 23.1279 11.0923 22.3846L10.588 20.783ZM3.56904 17.1061L2.16664 12.6746L0.603231 13.1934L2.00563 17.6248L3.56904 17.1061ZM2.16701 12.6758C1.49018 10.5262 1.50285 9.09035 2.01453 8.06097C2.52555 7.03292 3.64837 6.18128 5.74568 5.48886L5.24138 3.8872C2.98906 4.6308 1.35637 5.67517 0.549903 7.2976C-0.255906 8.9187 -0.122716 10.8878 0.602857 13.1922L2.16701 12.6758ZM5.75042 5.48728L7.4815 4.90389L6.96773 3.30539L5.23664 3.88878L5.75042 5.48728ZM7.47298 4.90671C7.90976 4.76489 8.30113 4.65299 8.65925 4.58361L8.35374 2.93009C7.9011 3.01778 7.43788 3.15269 6.97626 3.30257L7.47298 4.90671ZM7.76913 3.38551C7.4033 4.1472 7.12298 5.04389 6.89586 6.03231L8.49562 6.41775C8.70674 5.49894 8.95233 4.73521 9.24387 4.12819L7.76913 3.38551ZM6.89561 6.03339L5.82189 10.7341L7.42214 11.1174L8.49586 6.41666L6.89561 6.03339ZM5.82199 10.7337C5.26638 13.1604 5.30098 15.1826 6.26226 16.7675C7.22296 18.3513 8.97782 19.2813 11.3406 19.8557L11.7202 18.2184C9.51427 17.6822 8.27808 16.9013 7.65834 15.8795C7.03917 14.8588 6.90396 13.3807 7.42204 11.1178L5.82199 10.7337ZM11.3401 19.8556L13.1808 20.3044L13.5614 18.6673L11.7208 18.2186L11.3401 19.8556ZM13.1782 20.3038C13.848 20.4693 14.4826 20.5786 15.0805 20.6275L15.2115 18.95C14.7138 18.9092 14.1651 18.8165 13.5639 18.6679L13.1782 20.3038Z" fill="#010101"/>
<path d="M12.6968 6.78918C12.2569 6.67494 11.8099 6.9475 11.6983 7.39794C11.5867 7.84839 11.8529 8.30615 12.2928 8.42039L12.6968 6.78918ZM17.6066 9.80033C18.0465 9.91456 18.4935 9.642 18.6051 9.19156C18.7167 8.74112 18.4505 8.28335 18.0106 8.16912L17.6066 9.80033ZM12.2928 8.42039L17.6066 9.80033L18.0106 8.16912L12.6968 6.78918L12.2928 8.42039Z" fill="#010101"/>
<path d="M11.6242 11.1314C11.1845 11.0165 10.737 11.2883 10.6248 11.7386C10.5126 12.1889 10.7781 12.6471 11.2179 12.762L11.6242 11.1314ZM14.3952 13.5922C14.8349 13.7071 15.2823 13.4352 15.3945 12.9849C15.5068 12.5346 15.2412 12.0765 14.8015 11.9616L14.3952 13.5922ZM11.2179 12.762L14.3952 13.5922L14.8015 11.9616L11.6242 11.1314L11.2179 12.762Z" fill="#010101"/>
</svg>
