<svg width="23" height="23" viewBox="0 0 23 23" fill="none" xmlns="http://www.w3.org/2000/svg">
<path d="M22.9524 7.64118L22.6322 4.62607C22.1685 1.33884 20.656 0 17.4211 0H14.8156H13.1816H9.82531H8.19132H5.5416C2.29569 0 0.794183 1.33884 0.319442 4.65872L0.0213495 7.65206C-0.0890554 8.81674 0.231119 9.94877 0.92667 10.8304C1.76575 11.908 3.05749 12.5176 4.49275 12.5176C5.88385 12.5176 7.21975 11.8318 8.05883 10.7325C8.80958 11.8318 10.0903 12.5176 11.5145 12.5176C12.9387 12.5176 14.1863 11.8645 14.9481 10.776C15.7982 11.8536 17.112 12.5176 18.481 12.5176C19.9494 12.5176 21.2743 11.8754 22.1023 10.7434C22.7647 9.87257 23.0628 8.7732 22.9524 7.64118Z" fill="#15161E"/>
<path d="M10.7969 16.7739C9.39473 16.9154 8.33484 18.0909 8.33484 19.4842V22.4666C8.33484 22.7605 8.57773 23 8.87582 23H14.1421C14.4402 23 14.6831 22.7605 14.6831 22.4666V19.8651C14.6942 17.5902 13.3362 16.5126 10.7969 16.7739Z" fill="#15161E"/>
<path d="M21.8595 14.3137V17.5574C21.8595 20.5616 19.3864 22.9998 16.3392 22.9998C16.0411 22.9998 15.7982 22.7603 15.7982 22.4664V19.865C15.7982 18.4717 15.3677 17.3832 14.5286 16.643C13.7889 15.9791 12.7842 15.6525 11.5366 15.6525C11.2606 15.6525 10.9846 15.6634 10.6865 15.6961C8.72128 15.892 7.23081 17.5247 7.23081 19.484V22.4664C7.23081 22.7603 6.98792 22.9998 6.68983 22.9998C3.64266 22.9998 1.16959 20.5616 1.16959 17.5574V14.3354C1.16959 13.5735 1.93138 13.0619 2.64901 13.3123C2.9471 13.4102 3.2452 13.4864 3.55433 13.53C3.68682 13.5517 3.83034 13.5735 3.96283 13.5735C4.13948 13.5953 4.31613 13.6062 4.49277 13.6062C5.77347 13.6062 7.03209 13.1381 8.02573 12.3326C8.97521 13.1381 10.2117 13.6062 11.5145 13.6062C12.8283 13.6062 14.0428 13.1599 14.9923 12.3544C15.9859 13.149 17.2225 13.6062 18.4811 13.6062C18.6798 13.6062 18.8785 13.5953 19.0662 13.5735C19.1987 13.5626 19.3202 13.5517 19.4416 13.53C19.7839 13.4864 20.093 13.3885 20.4021 13.2905C21.1198 13.051 21.8595 13.5735 21.8595 14.3137Z" fill="#15161E"/>
</svg>
