<svg width="23" height="22" viewBox="0 0 23 22" fill="none" xmlns="http://www.w3.org/2000/svg">
<path d="M22.7436 18.7608C22.5667 18.9296 22.3427 19.0084 22.1187 19.0084C21.8947 19.0084 21.6706 18.9296 21.4938 18.7608L15.6576 13.1909L16.2825 12.5945L16.9073 11.9982L22.7436 17.5681C23.0855 17.8944 23.0855 18.4345 22.7436 18.7608Z" fill="#15161E"/>
<path d="M6.15454 7.77865L12.9929 14.305C13.4528 14.7438 13.4528 15.4527 12.9929 15.8916L11.9318 16.9155C10.9768 17.8157 9.46762 17.8157 8.5244 16.9155L3.40739 12.032C2.47595 11.1431 2.47595 9.69154 3.40739 8.79135L4.48031 7.76739C4.94013 7.3398 5.69472 7.3398 6.15454 7.77865Z" fill="#15161E"/>
<path d="M20.4445 8.80214L15.9523 13.078C15.4807 13.5281 14.7261 13.5281 14.2545 13.078L7.43971 6.57418C6.9681 6.12408 6.9681 5.40393 7.43971 4.95384L11.9318 0.666701C12.8633 -0.222234 14.3842 -0.222234 15.3275 0.666701L20.4445 5.55021C21.3759 6.4504 21.3759 7.8907 20.4445 8.80214Z" fill="#15161E"/>
<path d="M7.95848 21.8102H0.884275C0.400872 21.8102 0 21.4276 0 20.9663C0 20.5049 0.400872 20.1223 0.884275 20.1223H7.95848C8.44188 20.1223 8.84275 20.5049 8.84275 20.9663C8.84275 21.4276 8.44188 21.8102 7.95848 21.8102Z" fill="#15161E"/>
</svg>
