<svg width="84" height="28" viewBox="0 0 84 28" fill="none" xmlns="http://www.w3.org/2000/svg">
<path d="M35.9469 14.7348C35.9469 18.7633 32.8348 21.7317 29.0155 21.7317C25.1961 21.7317 22.084 18.7633 22.084 14.7348C22.084 10.678 25.1961 7.73792 29.0155 7.73792C32.8348 7.73792 35.9469 10.678 35.9469 14.7348ZM32.9127 14.7348C32.9127 12.2175 31.1089 10.495 29.0155 10.495C26.922 10.495 25.1183 12.2175 25.1183 14.7348C25.1183 17.227 26.922 18.9746 29.0155 18.9746C31.1089 18.9746 32.9127 17.2238 32.9127 14.7348Z" fill="#EA4335"/>
<path d="M50.9 14.7348C50.9 18.7633 47.7879 21.7317 43.9686 21.7317C40.1493 21.7317 37.0371 18.7633 37.0371 14.7348C37.0371 10.6812 40.1493 7.73792 43.9686 7.73792C47.7879 7.73792 50.9 10.678 50.9 14.7348ZM47.8658 14.7348C47.8658 12.2175 46.062 10.495 43.9686 10.495C41.8751 10.495 40.0714 12.2175 40.0714 14.7348C40.0714 17.227 41.8751 18.9746 43.9686 18.9746C46.062 18.9746 47.8658 17.2238 47.8658 14.7348Z" fill="#FBBC05"/>
<path d="M65.23 8.16063V20.7223C65.23 25.8895 62.2207 28 58.663 28C55.3141 28 53.2985 25.7318 52.5384 23.8769L55.1801 22.7633C55.6506 23.9021 56.8032 25.246 58.6599 25.246C60.9372 25.246 62.3484 23.8233 62.3484 21.145V20.1387H62.2425C61.5633 20.9873 60.2549 21.7286 58.6038 21.7286C55.149 21.7286 51.9839 18.6812 51.9839 14.7601C51.9839 10.8105 55.149 7.73792 58.6038 7.73792C60.2518 7.73792 61.5602 8.47925 62.2425 9.30261H62.3484V8.16379H65.23V8.16063ZM62.5633 14.7601C62.5633 12.2963 60.9403 10.495 58.8749 10.495C56.7814 10.495 55.0275 12.2963 55.0275 14.7601C55.0275 17.1986 56.7814 18.9746 58.8749 18.9746C60.9403 18.9746 62.5633 17.1986 62.5633 14.7601Z" fill="#4285F4"/>
<path d="M69.981 0.797729V21.3027H67.0215V0.797729H69.981Z" fill="#34A853"/>
<path d="M81.514 17.0374L83.8691 18.6273C83.109 19.7661 81.2772 21.7282 78.1121 21.7282C74.1868 21.7282 71.2554 18.6557 71.2554 14.7314C71.2554 10.5704 74.2118 7.73444 77.7725 7.73444C81.3582 7.73444 83.1121 10.6241 83.6853 12.1856L84 12.9806L74.7632 16.8544C75.4703 18.2582 76.57 18.9743 78.1121 18.9743C79.6572 18.9743 80.7289 18.2045 81.514 17.0374ZM74.2647 14.52L80.4392 11.9238C80.0996 11.0499 79.0778 10.4411 77.8753 10.4411C76.3333 10.4411 74.1868 11.8197 74.2647 14.52Z" fill="#EA4335"/>
<path d="M10.8816 12.915V9.94648H20.7601C20.8567 10.4638 20.9065 11.0758 20.9065 11.7383C20.9065 13.9655 20.3053 16.7194 18.3676 18.6816C16.4829 20.669 14.0748 21.729 10.8847 21.729C4.97196 21.729 0 16.8519 0 10.8645C0 4.87703 4.97196 0 10.8847 0C14.1558 0 16.486 1.2997 18.2368 2.99372L16.1682 5.08839C14.9128 3.89594 13.2118 2.96849 10.8816 2.96849C6.56387 2.96849 3.18692 6.49219 3.18692 10.8645C3.18692 15.2368 6.56387 18.7605 10.8816 18.7605C13.6822 18.7605 15.2773 17.6217 16.2991 16.5869C17.1277 15.7478 17.6729 14.5491 17.8879 12.9118L10.8816 12.915Z" fill="#4285F4"/>
</svg>
