<svg width="24" height="24" viewBox="0 0 24 24" fill="none" xmlns="http://www.w3.org/2000/svg">
<path d="M6.91561 15.3723L7.6323 15.7794L7.63417 15.7764L6.91561 15.3723ZM5.63289 17.382L4.91621 16.9749L4.91609 16.9751L5.63289 17.382ZM6.83754 20.4648L6.56934 21.2123L6.57244 21.2132L6.83754 20.4648ZM21.639 20.4648L21.3765 19.7156L21.3739 19.7164L21.639 20.4648ZM22.8437 17.382L23.561 16.9759L23.5603 16.9749L22.8437 17.382ZM21.561 15.3723L20.8362 15.7668L20.8442 15.7794L21.561 15.3723ZM14.2438 3.06197C10.0898 3.06197 6.71484 6.24561 6.71484 10.1641H8.38795C8.38795 7.11724 11.0139 4.64022 14.2438 4.64022V3.06197ZM6.71484 10.1641V13.2049H8.38795V10.1641H6.71484ZM6.71484 13.2049C6.71484 13.4307 6.66065 13.7611 6.55709 14.113C6.4536 14.4647 6.31942 14.7746 6.19705 14.9683L7.63417 15.7764C7.85758 15.4229 8.04128 14.97 8.16924 14.5352C8.29712 14.1006 8.38795 13.6208 8.38795 13.2049H6.71484ZM6.19893 14.9652L4.91621 16.9749L6.34957 17.7891L7.63229 15.7794L6.19893 14.9652ZM4.91609 16.9751C4.40184 17.7814 4.29454 18.6858 4.60997 19.4894C4.92504 20.2921 5.62971 20.9123 6.56934 21.2123L7.10572 19.7174C6.59532 19.5544 6.3017 19.254 6.17897 18.9414C6.05661 18.6296 6.072 18.2241 6.3497 17.7888L4.91609 16.9751ZM6.57244 21.2132C11.5519 22.7826 16.9247 22.7826 21.9041 21.2132L21.3739 19.7164C16.7386 21.1772 11.738 21.1772 7.10262 19.7164L6.57244 21.2132ZM21.9016 21.2141C23.7632 20.6335 24.5712 18.5643 23.561 16.9759L22.1262 17.788C22.5884 18.5144 22.214 19.4544 21.3765 19.7156L21.9016 21.2141ZM23.5603 16.9749L22.2776 14.9652L20.8442 15.7794L22.1269 17.7891L23.5603 16.9749ZM22.2855 14.978C22.1652 14.7812 22.0324 14.4681 21.9299 14.1154C21.8271 13.7618 21.7729 13.4309 21.7729 13.2049H20.0998C20.0998 13.6206 20.1905 14.0999 20.3164 14.5328C20.4424 14.9666 20.622 15.4163 20.8363 15.7667L22.2855 14.978ZM21.7729 13.2049V10.1641H20.0998V13.2049H21.7729ZM21.7729 10.1641C21.7729 6.25613 18.3867 3.06197 14.2438 3.06197V4.64022C17.4627 4.64022 20.0998 7.12777 20.0998 10.1641H21.7729Z" fill="#010101"/>
<path d="M16.3071 4.156L16.0738 4.91383C16.38 4.99767 16.71 4.91012 16.9249 4.68806C17.1398 4.466 17.2023 4.14802 17.086 3.86807L16.3071 4.156ZM15.2363 3.94556L15.1325 4.7286L15.1356 4.72896L15.2363 3.94556ZM12.1801 4.156L11.4012 3.86807C11.2849 4.14806 11.3474 4.46609 11.5624 4.68815C11.7774 4.91021 12.1075 4.9977 12.4136 4.91376L12.1801 4.156ZM16.5403 3.39816C16.1582 3.29351 15.7566 3.21016 15.337 3.16217L15.1356 4.72896C15.4521 4.76515 15.7644 4.82909 16.0738 4.91383L16.5403 3.39816ZM15.3401 3.16253C14.1627 3.0237 13.0213 3.10352 11.9466 3.39824L12.4136 4.91376C13.2573 4.68239 14.1684 4.61491 15.1325 4.7286L15.3401 3.16253ZM12.959 4.44393C13.1603 3.95918 13.6604 3.61939 14.2436 3.61939V2.04114C12.9529 2.04114 11.8467 2.79561 11.4012 3.86807L12.959 4.44393ZM14.2436 3.61939C14.8268 3.61939 15.3268 3.95918 15.5282 4.44393L17.086 3.86807C16.6404 2.79561 15.5343 2.04114 14.2436 2.04114V3.61939Z" fill="#010101"/>
<path d="M16.7535 20.0544C16.7535 21.3546 15.6222 22.4218 14.2438 22.4218V24C16.5463 24 18.4266 22.2263 18.4266 20.0544H16.7535ZM14.2438 22.4218C13.5606 22.4218 12.923 22.1537 12.4707 21.727L11.2876 22.843C12.0399 23.5526 13.0978 24 14.2438 24V22.4218ZM12.4707 21.727C12.0184 21.3003 11.7341 20.6988 11.7341 20.0544H10.061C10.061 21.1355 10.5353 22.1333 11.2876 22.843L12.4707 21.727Z" fill="#010101"/>
<circle cx="21" cy="3" r="3" fill="#E23434"/>
</svg>
