<svg width="21" height="14" viewBox="0 0 21 14" fill="none" xmlns="http://www.w3.org/2000/svg">
<path d="M20.734 2.05234C21.0887 1.58284 21.0887 0.821627 20.734 0.352126C20.3792 -0.117375 19.8042 -0.117375 19.4495 0.352126L20.734 2.05234ZM1.55058 0.352126C1.19586 -0.117375 0.620752 -0.117375 0.266037 0.352126C-0.0886789 0.821627 -0.0886789 1.58284 0.266037 2.05234L1.55058 0.352126ZM19.4495 0.352126L11.5533 10.8036L12.8378 12.5038L20.734 2.05234L19.4495 0.352126ZM11.5533 10.8036C10.9754 11.5683 10.0246 11.5683 9.44679 10.8036L8.16225 12.5038C9.44949 14.2076 11.5506 14.2076 12.8378 12.5038L11.5533 10.8036ZM9.44679 10.8036L1.55058 0.352126L0.266037 2.05234L8.16225 12.5038L9.44679 10.8036Z" fill="#101010"/>
</svg>
