<svg width="68" height="24" viewBox="0 0 68 24" fill="none" xmlns="http://www.w3.org/2000/svg">
<path d="M61.2069 6.29599L51.4008 1.40428C44.8139 -1.88734 42.1104 0.809955 45.4096 7.38177L46.4062 9.37045C46.6926 9.95334 46.6926 10.6277 46.4062 11.2106L45.4096 13.1879C42.1104 19.7597 44.8024 22.457 51.4008 19.1653L61.2069 14.2736C65.6058 12.0792 65.6058 8.4904 61.2069 6.29599ZM57.5067 11.142H51.3207C50.851 11.142 50.4615 10.7534 50.4615 10.2848C50.4615 9.81619 50.851 9.4276 51.3207 9.4276H57.5067C57.9764 9.4276 58.3659 9.81619 58.3659 10.2848C58.3659 10.7534 57.9764 11.142 57.5067 11.142Z" fill="#15161E"/>
<path d="M9.95786 24H16.0855V22.4681H9.95786V24ZM16.0855 24C18.7143 24 20.7537 23.479 22.1165 22.1161C23.4794 20.7533 24.0004 18.7139 24.0004 16.0852H22.4685C22.4685 18.5628 21.9683 20.0979 21.0333 21.0329C20.0982 21.9679 18.5631 22.4681 16.0855 22.4681V24ZM24.0004 16.0852V9.9575H22.4685V16.0852H24.0004ZM24.0004 9.9575C24.0004 7.32876 23.4794 5.28938 22.1165 3.92652C20.7537 2.56366 18.7143 2.0426 16.0855 2.0426V3.57452C18.5631 3.57452 20.0982 4.07474 21.0333 5.00975C21.9683 5.94476 22.4685 7.47985 22.4685 9.9575H24.0004ZM16.0855 2.0426H9.95786V3.57452H16.0855V2.0426ZM9.95786 2.0426C7.32913 2.0426 5.28975 2.56366 3.92689 3.92652C2.56403 5.28938 2.04297 7.32876 2.04297 9.9575H3.57488C3.57488 7.47985 4.0751 5.94476 5.01011 5.00975C5.94512 4.07474 7.48021 3.57452 9.95786 3.57452V2.0426ZM2.04297 9.9575V16.0852H3.57488V9.9575H2.04297ZM2.04297 16.0852C2.04297 18.7139 2.56403 20.7533 3.92689 22.1161C5.28975 23.479 7.32913 24 9.95786 24V22.4681C7.48021 22.4681 5.94512 21.9679 5.01011 21.0329C4.0751 20.0979 3.57488 18.5628 3.57488 16.0852H2.04297Z" fill="#93989A"/>
<path d="M17.3617 9.19155C17.3617 9.61457 17.0187 9.95751 16.5957 9.95751V11.4894C17.8648 11.4894 18.8936 10.4606 18.8936 9.19155H17.3617ZM16.5957 9.95751C16.1727 9.95751 15.8298 9.61457 15.8298 9.19155H14.2979C14.2979 10.4606 15.3266 11.4894 16.5957 11.4894V9.95751ZM15.8298 9.19155C15.8298 8.76853 16.1727 8.42559 16.5957 8.42559V6.89368C15.3266 6.89368 14.2979 7.92247 14.2979 9.19155H15.8298ZM16.5957 8.42559C17.0187 8.42559 17.3617 8.76853 17.3617 9.19155H18.8936C18.8936 7.92247 17.8648 6.89368 16.5957 6.89368V8.42559Z" fill="#93989A"/>
<path d="M10.2132 9.19155C10.2132 9.61457 9.87031 9.95751 9.44729 9.95751V11.4894C10.7164 11.4894 11.7452 10.4606 11.7452 9.19155H10.2132ZM9.44729 9.95751C9.02426 9.95751 8.68133 9.61457 8.68133 9.19155H7.14941C7.14941 10.4606 8.17821 11.4894 9.44729 11.4894V9.95751ZM8.68133 9.19155C8.68133 8.76853 9.02426 8.42559 9.44729 8.42559V6.89368C8.17821 6.89368 7.14941 7.92247 7.14941 9.19155H8.68133ZM9.44729 8.42559C9.87031 8.42559 10.2132 8.76853 10.2132 9.19155H11.7452C11.7452 7.92247 10.7164 6.89368 9.44729 6.89368V8.42559Z" fill="#93989A"/>
<path d="M9.34429 15.1149H16.6975V13.583H9.34429V15.1149ZM16.6975 15.1149C16.7851 15.1149 16.8507 15.1805 16.8507 15.2681H18.3826C18.3826 14.3344 17.6311 13.583 16.6975 13.583V15.1149ZM16.8507 15.2681C16.8507 17.3881 15.1408 19.0979 13.0209 19.0979V20.6298C15.9869 20.6298 18.3826 18.2341 18.3826 15.2681H16.8507ZM13.0209 19.0979C10.9009 19.0979 9.19109 17.3881 9.19109 15.2681H7.65918C7.65918 18.2341 10.0549 20.6298 13.0209 20.6298V19.0979ZM9.19109 15.2681C9.19109 15.1805 9.25667 15.1149 9.34429 15.1149V13.583C8.41062 13.583 7.65918 14.3344 7.65918 15.2681H9.19109Z" fill="#93989A"/>
</svg>
