<svg width="24" height="24" viewBox="0 0 24 24" fill="none" xmlns="http://www.w3.org/2000/svg">
<path d="M22.3256 12C22.3256 17.7026 17.7026 22.3256 12 22.3256V24C18.6274 24 24 18.6274 24 12H22.3256ZM12 22.3256C6.29734 22.3256 1.67442 17.7026 1.67442 12H0C0 18.6274 5.37258 24 12 24V22.3256ZM1.67442 12C1.67442 6.29734 6.29734 1.67442 12 1.67442V0C5.37258 0 0 5.37258 0 12H1.67442ZM12 1.67442C17.7026 1.67442 22.3256 6.29734 22.3256 12H24C24 5.37258 18.6274 0 12 0V1.67442Z" fill="#010101"/>
<path d="M7.94472 13.2344C7.73982 12.888 7.29686 12.7757 6.95535 12.9835C6.61384 13.1913 6.5031 13.6405 6.708 13.9869L7.94472 13.2344ZM14.3741 14.42L14.8827 14.9385L14.8841 14.9371L14.3741 14.42ZM16.357 11.9209C16.4139 11.5212 16.1405 11.1503 15.7463 11.0926C15.3522 11.0349 14.9865 11.3122 14.9296 11.712L16.357 11.9209ZM6.708 13.9869C6.91232 14.3322 7.16063 14.6523 7.44142 14.9371L8.46124 13.9028C8.26129 13.7001 8.08654 13.4741 7.94472 13.2344L6.708 13.9869ZM7.44142 14.9371C9.49296 17.0176 12.8234 17.0156 14.8827 14.9385L13.8656 13.9015C12.3674 15.4127 9.94802 15.4106 8.46124 13.9028L7.44142 14.9371ZM14.8841 14.9371C15.7251 14.0841 16.2023 13.0084 16.357 11.9209L14.9296 11.712C14.8151 12.5162 14.4654 13.2932 13.8642 13.9028L14.8841 14.9371Z" fill="#010101"/>
<path d="M5.96819 10.4061C5.91186 10.8059 6.18582 11.1764 6.58008 11.2335C6.97435 11.2906 7.33962 11.0128 7.39594 10.6129L5.96819 10.4061ZM14.3741 7.90598L14.884 7.38886L14.8826 7.38746L14.3741 7.90598ZM14.3863 9.10099C14.5964 9.44415 15.0409 9.54968 15.3793 9.33668C15.7177 9.12368 15.8217 8.67282 15.6117 8.32965L14.3863 9.10099ZM7.39594 10.6129C7.51028 9.80128 7.859 9.03378 8.46116 8.4231L7.44134 7.38886C6.60125 8.24081 6.12307 9.30657 5.96819 10.4061L7.39594 10.6129ZM8.46116 8.4231C9.94794 6.9153 12.3673 6.91329 13.8655 8.4245L14.8826 7.38746C12.8233 5.31034 9.49287 5.30833 7.44134 7.38886L8.46116 8.4231ZM13.8641 8.4231C14.0677 8.62948 14.2364 8.856 14.3863 9.10099L15.6117 8.32965C15.4155 8.00908 15.1804 7.68952 14.884 7.38886L13.8641 8.4231Z" fill="#010101"/>
<path d="M6.42239 16.2136C6.42239 16.6175 6.74525 16.9449 7.14351 16.9449C7.54178 16.9449 7.86464 16.6175 7.86464 16.2136H6.42239ZM7.14351 13.6101V12.8788C6.74525 12.8788 6.42239 13.2062 6.42239 13.6101H7.14351ZM9.7107 14.3414C10.109 14.3414 10.4318 14.014 10.4318 13.6101C10.4318 13.2062 10.109 12.8788 9.7107 12.8788V14.3414ZM7.86464 16.2136V13.6101H6.42239V16.2136H7.86464ZM7.14351 14.3414H9.7107V12.8788H7.14351V14.3414Z" fill="#010101"/>
<path d="M15.9028 6.11178C15.9028 5.70788 15.58 5.38046 15.1817 5.38046C14.7835 5.38046 14.4606 5.70788 14.4606 6.11178H15.9028ZM15.1817 8.71525V9.44656C15.58 9.44656 15.9028 9.11915 15.9028 8.71525H15.1817ZM12.6145 7.98393C12.2163 7.98393 11.8934 8.31136 11.8934 8.71525C11.8934 9.11915 12.2163 9.44656 12.6145 9.44656V7.98393ZM14.4606 6.11178V8.71525H15.9028V6.11178H14.4606ZM15.1817 7.98393H12.6145V9.44656H15.1817V7.98393Z" fill="#101010"/>
</svg>
