<svg width="48" height="48" viewBox="0 0 48 48" fill="none" xmlns="http://www.w3.org/2000/svg">
<rect width="48" height="48" rx="24" fill="#F7F9FA"/>
<path d="M20.0738 26.344C20.4429 26.532 20.8945 26.3852 21.0826 26.0161C21.2706 25.647 21.1238 25.1954 20.7547 25.0074L20.0738 26.344ZM18.8376 25.2998V24.5498C18.82 24.5498 18.8024 24.5505 18.7849 24.5517L18.8376 25.2998ZM18.8376 32.1474L18.7849 32.8955C18.8024 32.8968 18.82 32.8974 18.8376 32.8974V32.1474ZM29.0034 32.1474L29.009 31.3974H29.0034V32.1474ZM32.3401 30.8641L31.8471 30.2989C31.8422 30.3031 31.8373 30.3075 31.8325 30.3119L32.3401 30.8641ZM29.7734 22.4398L29.0336 22.563C29.088 22.8898 29.3503 23.1421 29.6789 23.1839L29.7734 22.4398ZM18.1777 25.5535C18.3178 25.9433 18.7474 26.1457 19.1372 26.0056C19.5269 25.8655 19.7294 25.4359 19.5892 25.0461L18.1777 25.5535ZM20.7547 25.0074C20.1618 24.7053 19.5041 24.5498 18.8376 24.5498V26.0498C19.2712 26.0498 19.6951 26.151 20.0738 26.344L20.7547 25.0074ZM18.7849 24.5517C13.5652 24.9197 13.5652 32.5275 18.7849 32.8955L18.8904 31.3992C15.53 31.1623 15.53 26.2849 18.8904 26.048L18.7849 24.5517ZM18.8376 32.8974H29.0034V31.3974H18.8376V32.8974ZM28.9979 32.8974C30.4244 32.9079 31.7997 32.3795 32.8477 31.4162L31.8325 30.3119C31.0655 31.017 30.0574 31.4052 29.009 31.3974L28.9979 32.8974ZM32.8331 31.4292C34.6002 29.8877 34.9872 27.5832 34.3936 25.6357C33.8 23.6884 32.1934 21.9912 29.8679 21.6958L29.6789 23.1839C31.3226 23.3926 32.5073 24.5921 32.9587 26.0731C33.4101 27.5541 33.0958 29.2095 31.8471 30.2989L32.8331 31.4292ZM30.5132 22.3167C30.1233 19.9744 28.9643 18.3638 27.4346 17.4653C25.9226 16.5773 24.1207 16.4273 22.4981 16.8539C20.8754 17.2804 19.3788 18.2976 18.4946 19.814C17.6002 21.348 17.375 23.3207 18.1777 25.5535L19.5892 25.0461C18.9206 23.186 19.1423 21.6812 19.7905 20.5695C20.4489 19.4401 21.5906 18.6434 22.8794 18.3046C24.1684 17.9657 25.5513 18.0988 26.675 18.7587C27.781 19.4083 28.7086 20.6107 29.0336 22.563L30.5132 22.3167Z" fill="#93989A"/>
<path d="M27.9441 22.1725C27.5736 22.3578 27.4234 22.8083 27.6086 23.1788C27.7939 23.5493 28.2444 23.6994 28.6149 23.5142L27.9441 22.1725ZM29.8232 23.2174C30.2374 23.2103 30.5673 22.8688 30.5602 22.4546C30.553 22.0405 30.2115 21.7105 29.7974 21.7176L29.8232 23.2174ZM28.6149 23.5142C28.9916 23.3258 29.4039 23.2247 29.8232 23.2174L29.7974 21.7176C29.1533 21.7287 28.5207 21.8842 27.9441 22.1725L28.6149 23.5142Z" fill="#93989A"/>
</svg>
