<svg width="19" height="19" viewBox="0 0 19 19" fill="none" xmlns="http://www.w3.org/2000/svg">
<path d="M19 6.24903V2.72795H17.4312V6.24903H19ZM19 2.72795C19 1.95652 18.8494 1.2131 18.3182 0.681862C17.7869 0.150627 17.0435 0 16.2721 0V1.56879C16.8864 1.56879 17.1148 1.69706 17.2089 1.79117C17.303 1.88527 17.4312 2.11364 17.4312 2.72795H19ZM16.2721 0H12.751V1.56879H16.2721V0ZM12.751 0C11.9796 0 11.2361 0.150627 10.7049 0.681862C10.1737 1.2131 10.0231 1.95652 10.0231 2.72795H11.5918C11.5918 2.11364 11.7201 1.88527 11.8142 1.79117C11.9083 1.69706 12.1367 1.56879 12.751 1.56879V0ZM10.0231 2.72795V6.24903H11.5918V2.72795H10.0231ZM10.0231 6.24903C10.0231 7.02048 10.1737 7.76389 10.7049 8.29512C11.2361 8.82636 11.9796 8.97698 12.751 8.97698V7.40819C12.1367 7.40819 11.9083 7.27992 11.8142 7.18582C11.7201 7.09172 11.5918 6.86335 11.5918 6.24903H10.0231ZM12.751 8.97698H16.2721V7.40819H12.751V8.97698ZM16.2721 8.97698C17.0435 8.97698 17.7869 8.82636 18.3182 8.29512C18.8494 7.76389 19 7.02048 19 6.24903H17.4312C17.4312 6.86335 17.303 7.09172 17.2089 7.18582C17.1148 7.27992 16.8864 7.40819 16.2721 7.40819V8.97698Z" fill="white"/>
<path d="M6.24903 8.18387L6.25397 7.39948H6.24903V8.18387ZM8.97698 6.46691V2.51007H7.40819V6.46691H8.97698ZM8.97698 2.51007C8.97698 1.79467 8.81577 1.09252 8.26147 0.600022C7.73083 0.128541 7.00315 0 6.24903 0V1.56879C6.88068 1.56879 7.12478 1.68865 7.21947 1.77278C7.29051 1.8359 7.40819 1.99658 7.40819 2.51007H8.97698ZM6.24903 0H2.72795V1.56879H6.24903V0ZM2.72795 0C1.97384 0 1.24617 0.128541 0.715517 0.600022C0.161214 1.09252 0 1.79467 0 2.51007H1.56879C1.56879 1.99658 1.68648 1.8359 1.75751 1.77278C1.8522 1.68865 2.09631 1.56879 2.72795 1.56879V0ZM0 2.51007V6.4582H1.56879V2.51007H0ZM0 6.4582C0 7.17633 0.160458 7.88028 0.716661 8.37254C1.2482 8.84295 1.97664 8.96827 2.72795 8.96827V7.39948C2.09351 7.39948 1.85017 7.28076 1.75637 7.19774C1.68723 7.13656 1.56879 6.97768 1.56879 6.4582H0ZM2.72795 8.96827H6.24903V7.39948H2.72795V8.96827ZM6.24409 8.96826C6.99865 8.973 7.72797 8.84804 8.26033 8.37689C8.81603 7.88508 8.97698 7.18173 8.97698 6.46691H7.40819C7.40819 6.98099 7.29026 7.14047 7.22062 7.2021C7.12764 7.28439 6.88517 7.40346 6.25397 7.39949L6.24409 8.96826Z" fill="white"/>
<path d="M8.97698 16.272V12.751H7.40819V16.272H8.97698ZM8.97698 12.751C8.97698 11.9795 8.82636 11.2361 8.29512 10.7049C7.76389 10.1736 7.02048 10.023 6.24903 10.023V11.5918C6.86335 11.5918 7.09172 11.7201 7.18582 11.8142C7.27992 11.9083 7.40819 12.1367 7.40819 12.751H8.97698ZM6.24903 10.023H2.72795V11.5918H6.24903V10.023ZM2.72795 10.023C1.95652 10.023 1.2131 10.1736 0.681862 10.7049C0.150627 11.2361 0 11.9795 0 12.751H1.56879C1.56879 12.1367 1.69706 11.9083 1.79117 11.8142C1.88527 11.7201 2.11364 11.5918 2.72795 11.5918V10.023ZM0 12.751V16.272H1.56879V12.751H0ZM0 16.272C0 17.0435 0.150627 17.7869 0.681862 18.3181C1.2131 18.8494 1.95652 19 2.72795 19V17.4312C2.11364 17.4312 1.88527 17.3029 1.79117 17.2088C1.69706 17.1147 1.56879 16.8864 1.56879 16.272H0ZM2.72795 19H6.24903V17.4312H2.72795V19ZM6.24903 19C7.02048 19 7.76389 18.8494 8.29512 18.3181C8.82636 17.7869 8.97698 17.0435 8.97698 16.272H7.40819C7.40819 16.8864 7.27992 17.1147 7.18582 17.2088C7.09172 17.3029 6.86335 17.4312 6.24903 17.4312V19Z" fill="white"/>
<path d="M11.6785 13.5094C11.2453 13.5094 10.8941 13.8606 10.8941 14.2938C10.8941 14.727 11.2453 15.0782 11.6785 15.0782V13.5094ZM16.9078 15.0782C17.341 15.0782 17.6922 14.727 17.6922 14.2938C17.6922 13.8606 17.341 13.5094 16.9078 13.5094V15.0782ZM11.6785 15.0782H16.9078V13.5094H11.6785V15.0782Z" fill="white"/>
<path d="M13.5092 16.9084C13.5092 17.3416 13.8604 17.6928 14.2936 17.6928C14.7269 17.6928 15.078 17.3416 15.078 16.9084H13.5092ZM15.078 11.6791C15.078 11.2459 14.7269 10.8947 14.2936 10.8947C13.8604 10.8947 13.5092 11.2459 13.5092 11.6791H15.078ZM15.078 16.9084V11.6791H13.5092V16.9084H15.078Z" fill="white"/>
</svg>
