<svg width="22" height="22" viewBox="0 0 22 22" fill="none" xmlns="http://www.w3.org/2000/svg">
<path d="M1.91905 13.8753C1.79258 13.4687 1.36043 13.2416 0.953829 13.3681C0.547225 13.4946 0.320135 13.9267 0.446607 14.3333L1.91905 13.8753ZM8.76977 21.8709C9.187 21.956 9.5942 21.6867 9.67928 21.2695C9.76436 20.8522 9.4951 20.445 9.07787 20.36L8.76977 21.8709ZM0.446607 14.3333C1.62906 18.1349 4.81046 21.0636 8.76977 21.8709L9.07787 20.36C5.67656 19.6664 2.93656 17.1466 1.91905 13.8753L0.446607 14.3333Z" fill="#010101"/>
<path d="M0.00396059 9.92515C-0.0388255 10.3488 0.269937 10.7269 0.693602 10.7697C1.11727 10.8125 1.4954 10.5038 1.53818 10.0801L0.00396059 9.92515ZM20.4615 10.0802C20.5044 10.5039 20.8826 10.8126 21.3063 10.7697C21.7299 10.7268 22.0386 10.3487 21.9958 9.925L20.4615 10.0802ZM1.53818 10.0801C2.02304 5.27906 6.0739 1.54203 10.9999 1.54203V0C5.27554 0 0.567683 4.34319 0.00396059 9.92515L1.53818 10.0801ZM10.9999 1.54203C15.9252 1.54203 19.9767 5.28876 20.4615 10.0802L21.9958 9.925C21.432 4.35405 16.7248 0 10.9999 0V1.54203Z" fill="#010101"/>
<path d="M12.9118 20.3701C12.4946 20.4554 12.2255 20.8628 12.3108 21.28C12.3962 21.6972 12.8035 21.9662 13.2207 21.8809L12.9118 20.3701ZM21.542 14.3891C21.671 13.9832 21.4465 13.5497 21.0407 13.4207C20.6349 13.2918 20.2014 13.5162 20.0724 13.922L21.542 14.3891ZM13.2207 21.8809C17.1674 21.0739 20.3378 18.1785 21.542 14.3891L20.0724 13.922C19.0356 17.1848 16.3051 19.6762 12.9118 20.3701L13.2207 21.8809Z" fill="#010101"/>
</svg>
