<svg width="22" height="22" viewBox="0 0 22 22" fill="none" xmlns="http://www.w3.org/2000/svg">
<path d="M11 22C17.0517 22 22 17.0517 22 11H20.4651C20.4651 16.2041 16.2041 20.4651 11 20.4651V22ZM22 11C22 4.94825 17.0517 0 11 0V1.53488C16.2041 1.53488 20.4651 5.79594 20.4651 11H22ZM11 0C4.94825 0 0 4.94825 0 11H1.53488C1.53488 5.79594 5.79594 1.53488 11 1.53488V0ZM0 11C0 17.0517 4.94825 22 11 22V20.4651C5.79594 20.4651 1.53488 16.2041 1.53488 11H0Z" fill="#93989A"/>
<path d="M12.5349 6.1396C9.00967 6.1396 6.13954 9.02178 6.13954 12.5349H7.67442C7.67442 9.86766 9.85917 7.67448 12.5349 7.67448V6.1396ZM6.13954 12.5349C6.13954 13.1557 6.1384 13.6864 6.1842 14.0986C6.22938 14.5052 6.33401 14.9659 6.68408 15.316C7.03416 15.6661 7.49487 15.7707 7.90145 15.8159C8.31368 15.8617 8.84434 15.8605 9.46512 15.8605V14.3256C8.80683 14.3256 8.37819 14.3245 8.07094 14.2904C7.75804 14.2556 7.7391 14.2004 7.76941 14.2307C7.79972 14.261 7.74447 14.242 7.7097 13.9291C7.67556 13.6219 7.67442 13.1932 7.67442 12.5349H6.13954ZM9.46512 15.8605C12.9792 15.8605 15.8605 12.9793 15.8605 9.46518H14.3256C14.3256 12.1316 12.1315 14.3256 9.46512 14.3256V15.8605ZM15.8605 9.46518C15.8605 8.82522 15.8616 8.28509 15.8159 7.86965C15.7711 7.46231 15.667 6.99537 15.3075 6.64681C14.9506 6.30074 14.4835 6.20955 14.0858 6.17206C13.6798 6.13378 13.1499 6.1396 12.5349 6.1396V7.67448C13.1989 7.67448 13.6283 7.67061 13.9418 7.70017C14.2636 7.73051 14.2761 7.78468 14.239 7.74869C14.1993 7.71022 14.2551 7.71808 14.2902 8.03748C14.3245 8.34879 14.3256 8.78732 14.3256 9.46518H15.8605Z" fill="#93989A"/>
</svg>
